<mxfile host="app.diagrams.net" modified="2024-05-26T03:00:43.134Z" agent="Mozilla/5.0 (Macintosh; Intel Mac OS X 10_15_7) AppleWebKit/537.36 (KHTML, like Gecko) Chrome/124.0.0.0 Safari/537.36" etag="EWcui6iCiC3WhcPTG6HB" version="24.4.8" type="github">
  <diagram id="rGnRi5jYEAo9KuGM_sZk" name="Page-1">
    <mxGraphModel dx="574" dy="541" grid="1" gridSize="10" guides="1" tooltips="1" connect="1" arrows="1" fold="1" page="1" pageScale="1" pageWidth="850" pageHeight="1100" math="1" shadow="0">
      <root>
        <mxCell id="0" />
        <mxCell id="1" parent="0" />
        <mxCell id="GQHEzxmw2uMpqQWXIb2g-68" value="" style="rounded=0;whiteSpace=wrap;html=1;fontSize=9;fillColor=#f5f5f5;fontColor=#333333;strokeColor=#666666;" parent="1" vertex="1">
          <mxGeometry x="781.25" y="646.5" width="170" height="25" as="geometry" />
        </mxCell>
        <mxCell id="1AHJtD8_qgkJWAqxRs4a-183" value="" style="rounded=0;whiteSpace=wrap;html=1;strokeWidth=1;fontFamily=Verdana;fontSize=14;fillColor=none;strokeColor=#B3B3B3;" parent="1" vertex="1">
          <mxGeometry x="740" y="641" width="374.5" height="218.5" as="geometry" />
        </mxCell>
        <mxCell id="o2bls5Q18p_dxOcrF1qy-60" value="" style="rounded=1;whiteSpace=wrap;html=1;fontSize=13;fillColor=#e1d5e7;strokeColor=#9673a6;opacity=20;strokeWidth=3;" parent="1" vertex="1">
          <mxGeometry x="756.25" y="739.75" width="149.25" height="78.75" as="geometry" />
        </mxCell>
        <mxCell id="-v3OjjnUW8kFr06Bp0UY-3" value="" style="rounded=1;whiteSpace=wrap;html=1;fontSize=13;fillColor=#b0e3e6;strokeColor=#0e8088;opacity=20;strokeWidth=3;" parent="1" vertex="1">
          <mxGeometry x="944.5" y="739.75" width="156" height="77.75" as="geometry" />
        </mxCell>
        <mxCell id="1AHJtD8_qgkJWAqxRs4a-296" value="" style="rounded=0;whiteSpace=wrap;html=1;strokeWidth=1;fontFamily=Times New Roman;fontSize=15;fillColor=#f9f7ed;strokeColor=#36393d;" parent="1" vertex="1">
          <mxGeometry x="187.51" y="647.25" width="210" height="138.5" as="geometry" />
        </mxCell>
        <mxCell id="1AHJtD8_qgkJWAqxRs4a-61" style="edgeStyle=none;rounded=0;orthogonalLoop=1;jettySize=auto;html=1;exitX=1;exitY=0.5;exitDx=0;exitDy=0;entryX=0;entryY=0.5;entryDx=0;entryDy=0;endArrow=classicThin;endFill=1;fontSize=17;" parent="1" source="1AHJtD8_qgkJWAqxRs4a-62" target="1AHJtD8_qgkJWAqxRs4a-63" edge="1">
          <mxGeometry relative="1" as="geometry" />
        </mxCell>
        <mxCell id="1AHJtD8_qgkJWAqxRs4a-62" value="$$\mathcal K$$" style="ellipse;whiteSpace=wrap;html=1;aspect=fixed;fontSize=18;fontFamily=Times New Roman;fontStyle=1;fillColor=#d5e8d4;strokeColor=#82b366;" parent="1" vertex="1">
          <mxGeometry x="199.01" y="829.5" width="30" height="30" as="geometry" />
        </mxCell>
        <mxCell id="1AHJtD8_qgkJWAqxRs4a-63" value="$$\mathcal Y$$" style="ellipse;whiteSpace=wrap;html=1;aspect=fixed;fontSize=18;fontFamily=Times New Roman;fontStyle=1;fillColor=#ffe6cc;strokeColor=#d79b00;" parent="1" vertex="1">
          <mxGeometry x="273.19" y="829.5" width="30" height="30" as="geometry" />
        </mxCell>
        <mxCell id="1AHJtD8_qgkJWAqxRs4a-64" style="edgeStyle=none;rounded=0;orthogonalLoop=1;jettySize=auto;html=1;exitX=0;exitY=0.5;exitDx=0;exitDy=0;entryX=1;entryY=0.5;entryDx=0;entryDy=0;endArrow=classicThin;endFill=1;fontSize=17;strokeColor=#000000;" parent="1" source="1AHJtD8_qgkJWAqxRs4a-65" target="1AHJtD8_qgkJWAqxRs4a-63" edge="1">
          <mxGeometry relative="1" as="geometry" />
        </mxCell>
        <mxCell id="1AHJtD8_qgkJWAqxRs4a-65" value="$$\mathcal M$$" style="ellipse;whiteSpace=wrap;html=1;aspect=fixed;fontSize=18;fontFamily=Times New Roman;fontStyle=1;fillColor=#e1d5e7;strokeColor=#9673a6;" parent="1" vertex="1">
          <mxGeometry x="351.14" y="829.5" width="30" height="30" as="geometry" />
        </mxCell>
        <mxCell id="1AHJtD8_qgkJWAqxRs4a-66" style="rounded=0;orthogonalLoop=1;jettySize=auto;html=1;exitX=0.987;exitY=0.351;exitDx=0;exitDy=0;entryX=0;entryY=1;entryDx=0;entryDy=0;endArrow=classicThin;endFill=1;exitPerimeter=0;fontSize=17;" parent="1" source="1AHJtD8_qgkJWAqxRs4a-68" target="1AHJtD8_qgkJWAqxRs4a-63" edge="1">
          <mxGeometry relative="1" as="geometry" />
        </mxCell>
        <mxCell id="1AHJtD8_qgkJWAqxRs4a-67" style="edgeStyle=none;rounded=0;orthogonalLoop=1;jettySize=auto;html=1;exitX=0.5;exitY=0;exitDx=0;exitDy=0;entryX=0.5;entryY=1;entryDx=0;entryDy=0;fontFamily=Georgia;fontSize=17;endArrow=classicThin;endFill=1;fontColor=#FF0000;strokeColor=#000000;" parent="1" source="1AHJtD8_qgkJWAqxRs4a-68" target="1AHJtD8_qgkJWAqxRs4a-62" edge="1">
          <mxGeometry relative="1" as="geometry" />
        </mxCell>
        <mxCell id="1AHJtD8_qgkJWAqxRs4a-68" value="$$\mathcal X$$" style="ellipse;whiteSpace=wrap;html=1;aspect=fixed;fontSize=18;fontFamily=Times New Roman;fontStyle=1;fillColor=#dae8fc;strokeColor=#6c8ebf;" parent="1" vertex="1">
          <mxGeometry x="199.01" y="892.5" width="30" height="30" as="geometry" />
        </mxCell>
        <mxCell id="1AHJtD8_qgkJWAqxRs4a-184" value="" style="rounded=0;whiteSpace=wrap;html=1;shadow=0;glass=0;sketch=0;fillColor=#f5f5f5;fontFamily=Georgia;fontColor=#333333;strokeColor=#666666;opacity=50;strokeWidth=1;" parent="1" vertex="1">
          <mxGeometry x="483" y="717.75" width="235" height="80" as="geometry" />
        </mxCell>
        <mxCell id="1AHJtD8_qgkJWAqxRs4a-185" value="&lt;font face=&quot;Times New Roman&quot; style=&quot;font-size: 17px;&quot;&gt;Multi-head Self-Attention&lt;/font&gt;" style="rounded=1;whiteSpace=wrap;html=1;fillColor=#fff2cc;strokeColor=#d6b656;fontSize=15;fontFamily=Tahoma;" parent="1" vertex="1">
          <mxGeometry x="503" y="757.75" width="205" height="30" as="geometry" />
        </mxCell>
        <mxCell id="1AHJtD8_qgkJWAqxRs4a-191" value="&lt;font style=&quot;font-size: 18px;&quot;&gt;&lt;i&gt;N&lt;/i&gt;×&lt;/font&gt;" style="text;html=1;align=center;verticalAlign=middle;resizable=0;points=[];autosize=1;strokeColor=none;fontFamily=Georgia;fontSize=18;" parent="1" vertex="1">
          <mxGeometry x="440" y="744.25" width="50" height="40" as="geometry" />
        </mxCell>
        <mxCell id="1AHJtD8_qgkJWAqxRs4a-194" value="&lt;font face=&quot;Times New Roman&quot; style=&quot;font-size: 17px;&quot;&gt;Feed-forward Network&lt;/font&gt;" style="rounded=1;whiteSpace=wrap;html=1;fillColor=#e1d5e7;strokeColor=#9673a6;fontSize=15;fontFamily=Tahoma;" parent="1" vertex="1">
          <mxGeometry x="503" y="727.75" width="205" height="30" as="geometry" />
        </mxCell>
        <mxCell id="1AHJtD8_qgkJWAqxRs4a-195" value="" style="endArrow=none;html=1;rounded=0;fontFamily=Times New Roman;fontSize=17;exitX=1;exitY=0.5;exitDx=0;exitDy=0;strokeColor=#B3B3B3;entryX=0;entryY=0;entryDx=0;entryDy=0;" parent="1" source="1AHJtD8_qgkJWAqxRs4a-194" target="1AHJtD8_qgkJWAqxRs4a-183" edge="1">
          <mxGeometry width="50" height="50" relative="1" as="geometry">
            <mxPoint x="655" y="743.5" as="sourcePoint" />
            <mxPoint x="720" y="624.7499999999998" as="targetPoint" />
          </mxGeometry>
        </mxCell>
        <mxCell id="1AHJtD8_qgkJWAqxRs4a-197" value="&lt;font face=&quot;Verdana&quot; style=&quot;font-size: 13px;&quot;&gt;···&lt;/font&gt;" style="text;html=1;align=center;verticalAlign=middle;resizable=0;points=[];autosize=1;strokeColor=none;fillColor=none;fontSize=13;fontFamily=Courier New;" parent="1" vertex="1">
          <mxGeometry x="843.5" y="744.75" width="40" height="30" as="geometry" />
        </mxCell>
        <mxCell id="1AHJtD8_qgkJWAqxRs4a-198" value="&lt;font face=&quot;Verdana&quot; style=&quot;font-size: 13px;&quot;&gt;···&lt;/font&gt;" style="text;html=1;align=center;verticalAlign=middle;resizable=0;points=[];autosize=1;strokeColor=none;fillColor=none;fontSize=13;fontFamily=Courier New;" parent="1" vertex="1">
          <mxGeometry x="843.5" y="766.75" width="40" height="30" as="geometry" />
        </mxCell>
        <mxCell id="1AHJtD8_qgkJWAqxRs4a-199" value="&lt;font face=&quot;Verdana&quot; style=&quot;font-size: 13px;&quot;&gt;···&lt;/font&gt;" style="text;html=1;align=center;verticalAlign=middle;resizable=0;points=[];autosize=1;strokeColor=none;fillColor=none;fontSize=13;fontFamily=Courier New;" parent="1" vertex="1">
          <mxGeometry x="843.5" y="787.75" width="40" height="30" as="geometry" />
        </mxCell>
        <mxCell id="1AHJtD8_qgkJWAqxRs4a-200" value="&lt;span style=&quot;font-size: 13px;&quot;&gt;&lt;font style=&quot;font-size: 13px;&quot;&gt;$$v^l_1$$&lt;/font&gt;&lt;/span&gt;" style="rounded=0;whiteSpace=wrap;html=1;fontFamily=Times New Roman;fontSize=13;fillColor=#e1d5e7;strokeColor=#9673a6;" parent="1" vertex="1">
          <mxGeometry x="766.25" y="747.75" width="20" height="20" as="geometry" />
        </mxCell>
        <mxCell id="1AHJtD8_qgkJWAqxRs4a-201" value="&lt;font style=&quot;font-size: 13px;&quot;&gt;$$k^l_1$$&lt;/font&gt;" style="rounded=0;whiteSpace=wrap;html=1;fontFamily=Times New Roman;fontSize=13;fillColor=#e1d5e7;strokeColor=#9673a6;" parent="1" vertex="1">
          <mxGeometry x="766.25" y="790.75" width="20" height="20" as="geometry" />
        </mxCell>
        <mxCell id="1AHJtD8_qgkJWAqxRs4a-203" value="" style="ellipse;whiteSpace=wrap;html=1;aspect=fixed;fontFamily=Times New Roman;fontSize=13;" parent="1" vertex="1">
          <mxGeometry x="768.25" y="771.75" width="15" height="15" as="geometry" />
        </mxCell>
        <mxCell id="1AHJtD8_qgkJWAqxRs4a-204" value="" style="line;strokeWidth=1;html=1;fontFamily=Times New Roman;fontSize=13;fillColor=none;" parent="1" vertex="1">
          <mxGeometry x="769.25" y="775.25" width="7" height="10" as="geometry" />
        </mxCell>
        <mxCell id="1AHJtD8_qgkJWAqxRs4a-205" value="" style="line;strokeWidth=1;html=1;fontFamily=Times New Roman;fontSize=13;fillColor=none;rotation=-40;" parent="1" vertex="1">
          <mxGeometry x="775.25" y="774.25" width="7" height="7" as="geometry" />
        </mxCell>
        <mxCell id="1AHJtD8_qgkJWAqxRs4a-206" value="&lt;span style=&quot;font-size: 13px;&quot;&gt;&lt;font style=&quot;font-size: 13px;&quot;&gt;$$v^l_2$$&lt;/font&gt;&lt;/span&gt;" style="rounded=0;whiteSpace=wrap;html=1;fontFamily=Times New Roman;fontSize=13;fillColor=#e1d5e7;strokeColor=#9673a6;" parent="1" vertex="1">
          <mxGeometry x="799.25" y="747.75" width="20" height="20" as="geometry" />
        </mxCell>
        <mxCell id="1AHJtD8_qgkJWAqxRs4a-207" value="&lt;font style=&quot;font-size: 13px;&quot;&gt;$$k^l_2$$&lt;/font&gt;" style="rounded=0;whiteSpace=wrap;html=1;fontFamily=Times New Roman;fontSize=13;fillColor=#e1d5e7;strokeColor=#9673a6;" parent="1" vertex="1">
          <mxGeometry x="799.25" y="790.75" width="20" height="20" as="geometry" />
        </mxCell>
        <mxCell id="1AHJtD8_qgkJWAqxRs4a-208" value="" style="ellipse;whiteSpace=wrap;html=1;aspect=fixed;fontFamily=Times New Roman;fontSize=13;" parent="1" vertex="1">
          <mxGeometry x="801.5" y="771.75" width="15" height="15" as="geometry" />
        </mxCell>
        <mxCell id="1AHJtD8_qgkJWAqxRs4a-209" value="" style="line;strokeWidth=1;html=1;fontFamily=Times New Roman;fontSize=13;fillColor=none;" parent="1" vertex="1">
          <mxGeometry x="802.5" y="775.25" width="7" height="10" as="geometry" />
        </mxCell>
        <mxCell id="1AHJtD8_qgkJWAqxRs4a-210" value="" style="line;strokeWidth=1;html=1;fontFamily=Times New Roman;fontSize=13;fillColor=none;rotation=-40;" parent="1" vertex="1">
          <mxGeometry x="808.5" y="774.25" width="7" height="7" as="geometry" />
        </mxCell>
        <mxCell id="1AHJtD8_qgkJWAqxRs4a-216" value="&lt;span style=&quot;font-size: 13px;&quot;&gt;&lt;font style=&quot;font-size: 13px;&quot;&gt;$$v^l_d$$&lt;/font&gt;&lt;/span&gt;" style="rounded=0;whiteSpace=wrap;html=1;fontFamily=Times New Roman;fontSize=13;fillColor=#e1d5e7;strokeColor=#9673a6;" parent="1" vertex="1">
          <mxGeometry x="878.5" y="747.25" width="20" height="20" as="geometry" />
        </mxCell>
        <mxCell id="1AHJtD8_qgkJWAqxRs4a-217" value="&lt;font style=&quot;font-size: 13px;&quot;&gt;$$k^l_d$$&lt;/font&gt;" style="rounded=0;whiteSpace=wrap;html=1;fontFamily=Times New Roman;fontSize=13;fillColor=#e1d5e7;strokeColor=#9673a6;" parent="1" vertex="1">
          <mxGeometry x="878.5" y="790.25" width="20" height="20" as="geometry" />
        </mxCell>
        <mxCell id="1AHJtD8_qgkJWAqxRs4a-218" value="" style="ellipse;whiteSpace=wrap;html=1;aspect=fixed;fontFamily=Times New Roman;fontSize=13;" parent="1" vertex="1">
          <mxGeometry x="880" y="771.25" width="15" height="15" as="geometry" />
        </mxCell>
        <mxCell id="1AHJtD8_qgkJWAqxRs4a-219" value="" style="line;strokeWidth=1;html=1;fontFamily=Times New Roman;fontSize=13;fillColor=none;" parent="1" vertex="1">
          <mxGeometry x="881" y="774.75" width="7" height="10" as="geometry" />
        </mxCell>
        <mxCell id="1AHJtD8_qgkJWAqxRs4a-220" value="" style="line;strokeWidth=1;html=1;fontFamily=Times New Roman;fontSize=13;fillColor=none;rotation=-40;" parent="1" vertex="1">
          <mxGeometry x="887" y="773.75" width="7" height="7" as="geometry" />
        </mxCell>
        <mxCell id="1AHJtD8_qgkJWAqxRs4a-196" value="" style="endArrow=none;html=1;rounded=0;fontFamily=Times New Roman;fontSize=17;exitX=1;exitY=0.5;exitDx=0;exitDy=0;sourcePerimeterSpacing=-4;entryX=0;entryY=1;entryDx=0;entryDy=0;strokeColor=#B3B3B3;" parent="1" source="1AHJtD8_qgkJWAqxRs4a-194" target="1AHJtD8_qgkJWAqxRs4a-183" edge="1">
          <mxGeometry width="50" height="50" relative="1" as="geometry">
            <mxPoint x="655" y="734.5" as="sourcePoint" />
            <mxPoint x="720" y="814.7499999999998" as="targetPoint" />
          </mxGeometry>
        </mxCell>
        <mxCell id="zV5g6A6bOs3h6iSMPPQw-1" value="&lt;i style=&quot;--tw-border-spacing-x: 0; --tw-border-spacing-y: 0; --tw-translate-x: 0; --tw-translate-y: 0; --tw-rotate: 0; --tw-skew-x: 0; --tw-skew-y: 0; --tw-scale-x: 1; --tw-scale-y: 1; --tw-pan-x: ; --tw-pan-y: ; --tw-pinch-zoom: ; --tw-scroll-snap-strictness: proximity; --tw-ordinal: ; --tw-slashed-zero: ; --tw-numeric-figure: ; --tw-numeric-spacing: ; --tw-numeric-fraction: ; --tw-ring-inset: ; --tw-ring-offset-width: 0px; --tw-ring-offset-color: #fff; --tw-ring-color: rgb(59 130 246 / 0.5); --tw-ring-offset-shadow: 0 0 #0000; --tw-ring-shadow: 0 0 #0000; --tw-shadow: 0 0 #0000; --tw-shadow-colored: 0 0 #0000; --tw-blur: ; --tw-brightness: ; --tw-contrast: ; --tw-grayscale: ; --tw-hue-rotate: ; --tw-invert: ; --tw-saturate: ; --tw-sepia: ; --tw-drop-shadow: ; --tw-backdrop-blur: ; --tw-backdrop-brightness: ; --tw-backdrop-contrast: ; --tw-backdrop-grayscale: ; --tw-backdrop-hue-rotate: ; --tw-backdrop-invert: ; --tw-backdrop-opacity: ; --tw-backdrop-saturate: ; --tw-backdrop-sepia: ; border-color: var(--border-color);&quot;&gt;$$\mathcal M$$&lt;/i&gt;" style="ellipse;whiteSpace=wrap;html=1;aspect=fixed;fontSize=15;fontFamily=Times New Roman;fontStyle=1;fillColor=#e1d5e7;strokeColor=#9673a6;" parent="1" vertex="1">
          <mxGeometry x="203.51" y="720.25" width="23.5" height="23.5" as="geometry" />
        </mxCell>
        <mxCell id="zV5g6A6bOs3h6iSMPPQw-2" value="&lt;i&gt;$$\mathcal Y$$&lt;/i&gt;" style="ellipse;whiteSpace=wrap;html=1;aspect=fixed;fontSize=15;fontFamily=Times New Roman;fontStyle=1;fillColor=#ffe6cc;strokeColor=#d79b00;" parent="1" vertex="1">
          <mxGeometry x="203.51" y="751.25" width="23.5" height="23.5" as="geometry" />
        </mxCell>
        <mxCell id="zV5g6A6bOs3h6iSMPPQw-3" value="&lt;i style=&quot;--tw-border-spacing-x: 0; --tw-border-spacing-y: 0; --tw-translate-x: 0; --tw-translate-y: 0; --tw-rotate: 0; --tw-skew-x: 0; --tw-skew-y: 0; --tw-scale-x: 1; --tw-scale-y: 1; --tw-pan-x: ; --tw-pan-y: ; --tw-pinch-zoom: ; --tw-scroll-snap-strictness: proximity; --tw-ordinal: ; --tw-slashed-zero: ; --tw-numeric-figure: ; --tw-numeric-spacing: ; --tw-numeric-fraction: ; --tw-ring-inset: ; --tw-ring-offset-width: 0px; --tw-ring-offset-color: #fff; --tw-ring-color: rgb(59 130 246 / 0.5); --tw-ring-offset-shadow: 0 0 #0000; --tw-ring-shadow: 0 0 #0000; --tw-shadow: 0 0 #0000; --tw-shadow-colored: 0 0 #0000; --tw-blur: ; --tw-brightness: ; --tw-contrast: ; --tw-grayscale: ; --tw-hue-rotate: ; --tw-invert: ; --tw-saturate: ; --tw-sepia: ; --tw-drop-shadow: ; --tw-backdrop-blur: ; --tw-backdrop-brightness: ; --tw-backdrop-contrast: ; --tw-backdrop-grayscale: ; --tw-backdrop-hue-rotate: ; --tw-backdrop-invert: ; --tw-backdrop-opacity: ; --tw-backdrop-saturate: ; --tw-backdrop-sepia: ; border-color: var(--border-color);&quot;&gt;$$\mathcal X$$&lt;/i&gt;" style="ellipse;whiteSpace=wrap;html=1;aspect=fixed;fontSize=15;fontFamily=Times New Roman;fontStyle=1;fillColor=#dae8fc;strokeColor=#6c8ebf;" parent="1" vertex="1">
          <mxGeometry x="203.51" y="657.25" width="23.5" height="23.5" as="geometry" />
        </mxCell>
        <mxCell id="zV5g6A6bOs3h6iSMPPQw-4" value="&lt;i style=&quot;--tw-border-spacing-x: 0; --tw-border-spacing-y: 0; --tw-translate-x: 0; --tw-translate-y: 0; --tw-rotate: 0; --tw-skew-x: 0; --tw-skew-y: 0; --tw-scale-x: 1; --tw-scale-y: 1; --tw-pan-x: ; --tw-pan-y: ; --tw-pinch-zoom: ; --tw-scroll-snap-strictness: proximity; --tw-ordinal: ; --tw-slashed-zero: ; --tw-numeric-figure: ; --tw-numeric-spacing: ; --tw-numeric-fraction: ; --tw-ring-inset: ; --tw-ring-offset-width: 0px; --tw-ring-offset-color: #fff; --tw-ring-color: rgb(59 130 246 / 0.5); --tw-ring-offset-shadow: 0 0 #0000; --tw-ring-shadow: 0 0 #0000; --tw-shadow: 0 0 #0000; --tw-shadow-colored: 0 0 #0000; --tw-blur: ; --tw-brightness: ; --tw-contrast: ; --tw-grayscale: ; --tw-hue-rotate: ; --tw-invert: ; --tw-saturate: ; --tw-sepia: ; --tw-drop-shadow: ; --tw-backdrop-blur: ; --tw-backdrop-brightness: ; --tw-backdrop-contrast: ; --tw-backdrop-grayscale: ; --tw-backdrop-hue-rotate: ; --tw-backdrop-invert: ; --tw-backdrop-opacity: ; --tw-backdrop-saturate: ; --tw-backdrop-sepia: ; border-color: var(--border-color);&quot;&gt;$$\mathcal K$$&lt;/i&gt;" style="ellipse;whiteSpace=wrap;html=1;aspect=fixed;fontSize=15;fontFamily=Times New Roman;fontStyle=1;fillColor=#d5e8d4;strokeColor=#82b366;" parent="1" vertex="1">
          <mxGeometry x="203.51" y="688.25" width="23.5" height="23.5" as="geometry" />
        </mxCell>
        <mxCell id="zV5g6A6bOs3h6iSMPPQw-5" value="&lt;span style=&quot;color: rgb(0, 0, 0); font-style: normal; font-variant-ligatures: normal; font-variant-caps: normal; font-weight: 400; letter-spacing: normal; orphans: 2; text-align: left; text-indent: 0px; text-transform: none; widows: 2; word-spacing: 0px; -webkit-text-stroke-width: 0px; text-decoration-thickness: initial; text-decoration-style: initial; text-decoration-color: initial; float: none; font-size: 14px; display: inline !important;&quot;&gt;&lt;font style=&quot;font-size: 14px;&quot;&gt;Retrieved Knowledge.&lt;br style=&quot;font-size: 14px;&quot;&gt;&lt;/font&gt;&lt;/span&gt;" style="text;whiteSpace=wrap;html=1;fontSize=14;fontFamily=Georgia;" parent="1" vertex="1">
          <mxGeometry x="235.14" y="684.75" width="138.37" height="36" as="geometry" />
        </mxCell>
        <mxCell id="zV5g6A6bOs3h6iSMPPQw-6" value="&lt;span style=&quot;text-align: left; font-size: 14px;&quot;&gt;&lt;font style=&quot;font-size: 14px;&quot;&gt;Prompts &amp;amp; Queries.&lt;/font&gt;&lt;/span&gt;" style="text;html=1;align=center;verticalAlign=middle;resizable=0;points=[];autosize=1;strokeColor=none;fillColor=none;fontSize=14;fontFamily=Georgia;" parent="1" vertex="1">
          <mxGeometry x="227.01" y="654" width="140" height="30" as="geometry" />
        </mxCell>
        <mxCell id="zV5g6A6bOs3h6iSMPPQw-7" value="&lt;div style=&quot;border-color: var(--border-color); text-align: left; font-size: 14px;&quot;&gt;&lt;span style=&quot;border-color: var(--border-color); background-color: initial; font-size: 14px;&quot;&gt;&lt;font style=&quot;font-size: 14px;&quot;&gt;Large Language Model.&lt;/font&gt;&lt;/span&gt;&lt;/div&gt;" style="text;html=1;align=center;verticalAlign=middle;resizable=0;points=[];autosize=1;strokeColor=none;fillColor=none;fontSize=14;fontFamily=Georgia;" parent="1" vertex="1">
          <mxGeometry x="226.14" y="718" width="170" height="30" as="geometry" />
        </mxCell>
        <mxCell id="zV5g6A6bOs3h6iSMPPQw-8" value="&lt;span style=&quot;text-align: left; font-size: 14px;&quot;&gt;&lt;font style=&quot;font-size: 14px;&quot;&gt;Generated Responses.&lt;/font&gt;&lt;/span&gt;" style="text;html=1;align=center;verticalAlign=middle;resizable=0;points=[];autosize=1;strokeColor=none;fillColor=none;fontSize=14;fontFamily=Georgia;" parent="1" vertex="1">
          <mxGeometry x="225.14" y="747.75" width="160" height="30" as="geometry" />
        </mxCell>
        <mxCell id="o2bls5Q18p_dxOcrF1qy-1" value="&lt;font style=&quot;font-size: 20px;&quot;&gt;(a)&lt;/font&gt;" style="text;html=1;align=center;verticalAlign=middle;resizable=0;points=[];autosize=1;strokeColor=none;fillColor=none;fontSize=20;fontFamily=Times New Roman;" parent="1" vertex="1">
          <mxGeometry x="265.51" y="948.5" width="50" height="40" as="geometry" />
        </mxCell>
        <mxCell id="o2bls5Q18p_dxOcrF1qy-2" value="&lt;font style=&quot;font-size: 20px;&quot;&gt;(b)&lt;/font&gt;" style="text;html=1;align=center;verticalAlign=middle;resizable=0;points=[];autosize=1;strokeColor=none;fillColor=none;fontSize=20;fontFamily=Times New Roman;" parent="1" vertex="1">
          <mxGeometry x="789" y="951.5" width="50" height="40" as="geometry" />
        </mxCell>
        <mxCell id="o2bls5Q18p_dxOcrF1qy-13" value="&lt;font face=&quot;Times New Roman&quot; style=&quot;font-size: 17px;&quot;&gt;Word Embedding Layer&lt;/font&gt;" style="rounded=1;whiteSpace=wrap;html=1;fillColor=#f8cecc;strokeColor=#b85450;fontSize=15;fontFamily=Tahoma;" parent="1" vertex="1">
          <mxGeometry x="503" y="818.75" width="205" height="30" as="geometry" />
        </mxCell>
        <mxCell id="o2bls5Q18p_dxOcrF1qy-24" value="" style="shape=flexArrow;endArrow=classic;html=1;rounded=0;fontFamily=Georgia;fontSize=15;width=8.64864864864865;endSize=1.9063829787234043;endWidth=9.411539198773243;fillColor=#f5f5f5;strokeColor=#666666;" parent="1" edge="1">
          <mxGeometry width="50" height="50" relative="1" as="geometry">
            <mxPoint x="605.96" y="868.5" as="sourcePoint" />
            <mxPoint x="605.6999999999999" y="855.5" as="targetPoint" />
          </mxGeometry>
        </mxCell>
        <mxCell id="o2bls5Q18p_dxOcrF1qy-37" value="&lt;font face=&quot;Verdana&quot; style=&quot;font-size: 13px;&quot;&gt;···&lt;/font&gt;" style="text;html=1;align=center;verticalAlign=middle;resizable=0;points=[];autosize=1;strokeColor=none;fillColor=none;fontSize=13;fontFamily=Courier New;" parent="1" vertex="1">
          <mxGeometry x="1033.75" y="744" width="40" height="30" as="geometry" />
        </mxCell>
        <mxCell id="o2bls5Q18p_dxOcrF1qy-38" value="&lt;font face=&quot;Verdana&quot; style=&quot;font-size: 13px;&quot;&gt;···&lt;/font&gt;" style="text;html=1;align=center;verticalAlign=middle;resizable=0;points=[];autosize=1;strokeColor=none;fillColor=none;fontSize=13;fontFamily=Courier New;" parent="1" vertex="1">
          <mxGeometry x="1033.75" y="764.5" width="40" height="30" as="geometry" />
        </mxCell>
        <mxCell id="o2bls5Q18p_dxOcrF1qy-39" value="&lt;font face=&quot;Verdana&quot; style=&quot;font-size: 13px;&quot;&gt;···&lt;/font&gt;" style="text;html=1;align=center;verticalAlign=middle;resizable=0;points=[];autosize=1;strokeColor=none;fillColor=none;fontSize=13;fontFamily=Courier New;" parent="1" vertex="1">
          <mxGeometry x="1033.75" y="786.5" width="40" height="30" as="geometry" />
        </mxCell>
        <mxCell id="o2bls5Q18p_dxOcrF1qy-40" value="&lt;span style=&quot;font-size: 13px;&quot;&gt;&lt;font style=&quot;font-size: 13px;&quot;&gt;$${\tilde v}^l_1$$&lt;/font&gt;&lt;/span&gt;" style="rounded=0;whiteSpace=wrap;html=1;fontFamily=Times New Roman;fontSize=13;fillColor=#d5e8d4;strokeColor=#82b366;" parent="1" vertex="1">
          <mxGeometry x="955.5" y="747.75" width="20" height="20" as="geometry" />
        </mxCell>
        <mxCell id="o2bls5Q18p_dxOcrF1qy-41" value="&lt;font style=&quot;font-size: 13px;&quot;&gt;$$\tilde k^l_1$$&lt;/font&gt;" style="rounded=0;whiteSpace=wrap;html=1;fontFamily=Times New Roman;fontSize=13;fillColor=#d5e8d4;strokeColor=#82b366;" parent="1" vertex="1">
          <mxGeometry x="955.5" y="790.75" width="20" height="20" as="geometry" />
        </mxCell>
        <mxCell id="o2bls5Q18p_dxOcrF1qy-42" value="" style="ellipse;whiteSpace=wrap;html=1;aspect=fixed;fontFamily=Times New Roman;fontSize=13;" parent="1" vertex="1">
          <mxGeometry x="957.5" y="771.75" width="15" height="15" as="geometry" />
        </mxCell>
        <mxCell id="o2bls5Q18p_dxOcrF1qy-43" value="" style="line;strokeWidth=1;html=1;fontFamily=Times New Roman;fontSize=13;fillColor=none;" parent="1" vertex="1">
          <mxGeometry x="958.5" y="775.25" width="7" height="10" as="geometry" />
        </mxCell>
        <mxCell id="o2bls5Q18p_dxOcrF1qy-44" value="" style="line;strokeWidth=1;html=1;fontFamily=Times New Roman;fontSize=13;fillColor=none;rotation=-40;" parent="1" vertex="1">
          <mxGeometry x="964.5" y="774.25" width="7" height="7" as="geometry" />
        </mxCell>
        <mxCell id="o2bls5Q18p_dxOcrF1qy-45" value="&lt;span style=&quot;font-size: 13px;&quot;&gt;&lt;font style=&quot;font-size: 13px;&quot;&gt;$${\tilde v}^l_2$$&lt;/font&gt;&lt;/span&gt;" style="rounded=0;whiteSpace=wrap;html=1;fontFamily=Times New Roman;fontSize=13;fillColor=#d5e8d4;strokeColor=#82b366;" parent="1" vertex="1">
          <mxGeometry x="988.5" y="748" width="20" height="20" as="geometry" />
        </mxCell>
        <mxCell id="o2bls5Q18p_dxOcrF1qy-46" value="&lt;font style=&quot;font-size: 13px;&quot;&gt;$$\tilde k^l_2$$&lt;/font&gt;" style="rounded=0;whiteSpace=wrap;html=1;fontFamily=Times New Roman;fontSize=13;fillColor=#d5e8d4;strokeColor=#82b366;" parent="1" vertex="1">
          <mxGeometry x="988.5" y="791" width="20" height="20" as="geometry" />
        </mxCell>
        <mxCell id="o2bls5Q18p_dxOcrF1qy-47" value="" style="ellipse;whiteSpace=wrap;html=1;aspect=fixed;fontFamily=Times New Roman;fontSize=13;" parent="1" vertex="1">
          <mxGeometry x="990.75" y="772" width="14.25" height="14.25" as="geometry" />
        </mxCell>
        <mxCell id="o2bls5Q18p_dxOcrF1qy-48" value="" style="line;strokeWidth=1;html=1;fontFamily=Times New Roman;fontSize=13;fillColor=none;" parent="1" vertex="1">
          <mxGeometry x="991.75" y="775.5" width="7" height="10" as="geometry" />
        </mxCell>
        <mxCell id="o2bls5Q18p_dxOcrF1qy-49" value="" style="line;strokeWidth=1;html=1;fontFamily=Times New Roman;fontSize=13;fillColor=none;rotation=-40;" parent="1" vertex="1">
          <mxGeometry x="997.75" y="774.5" width="7" height="7" as="geometry" />
        </mxCell>
        <mxCell id="o2bls5Q18p_dxOcrF1qy-55" value="&lt;span style=&quot;font-size: 13px;&quot;&gt;&lt;font style=&quot;font-size: 13px;&quot;&gt;$$\tilde v^l_{d^\prime}$$&lt;/font&gt;&lt;/span&gt;" style="rounded=0;whiteSpace=wrap;html=1;fontFamily=Times New Roman;fontSize=13;fillColor=#d5e8d4;strokeColor=#82b366;" parent="1" vertex="1">
          <mxGeometry x="1068.25" y="747.5" width="20" height="20" as="geometry" />
        </mxCell>
        <mxCell id="o2bls5Q18p_dxOcrF1qy-56" value="&lt;font style=&quot;font-size: 13px;&quot;&gt;$$\tilde k^l_{d^\prime}$$&lt;/font&gt;" style="rounded=0;whiteSpace=wrap;html=1;fontFamily=Times New Roman;fontSize=13;fillColor=#d5e8d4;strokeColor=#82b366;" parent="1" vertex="1">
          <mxGeometry x="1068.25" y="790.5" width="20" height="20" as="geometry" />
        </mxCell>
        <mxCell id="o2bls5Q18p_dxOcrF1qy-57" value="" style="ellipse;whiteSpace=wrap;html=1;aspect=fixed;fontFamily=Times New Roman;fontSize=13;" parent="1" vertex="1">
          <mxGeometry x="1069.75" y="771.5" width="15" height="15" as="geometry" />
        </mxCell>
        <mxCell id="o2bls5Q18p_dxOcrF1qy-58" value="" style="line;strokeWidth=1;html=1;fontFamily=Times New Roman;fontSize=13;fillColor=none;" parent="1" vertex="1">
          <mxGeometry x="1070.75" y="775" width="7" height="10" as="geometry" />
        </mxCell>
        <mxCell id="o2bls5Q18p_dxOcrF1qy-59" value="" style="line;strokeWidth=1;html=1;fontFamily=Times New Roman;fontSize=13;fillColor=none;rotation=-40;" parent="1" vertex="1">
          <mxGeometry x="1076.75" y="774" width="7" height="7" as="geometry" />
        </mxCell>
        <mxCell id="o2bls5Q18p_dxOcrF1qy-64" value="" style="shape=flexArrow;endArrow=classic;html=1;rounded=0;fontFamily=Georgia;fontSize=15;width=8.64864864864865;endSize=1.9063829787234043;endWidth=9.411539198773243;fillColor=#f5f5f5;strokeColor=#666666;" parent="1" edge="1">
          <mxGeometry width="50" height="50" relative="1" as="geometry">
            <mxPoint x="605.96" y="814.25" as="sourcePoint" />
            <mxPoint x="605.6999999999999" y="801.25" as="targetPoint" />
          </mxGeometry>
        </mxCell>
        <mxCell id="o2bls5Q18p_dxOcrF1qy-65" value="" style="shape=flexArrow;endArrow=classic;html=1;rounded=0;fontFamily=Georgia;fontSize=15;width=8.64864864864865;endSize=1.9063829787234043;endWidth=9.411539198773243;fillColor=#f5f5f5;strokeColor=#666666;" parent="1" edge="1">
          <mxGeometry width="50" height="50" relative="1" as="geometry">
            <mxPoint x="605.9" y="711.5" as="sourcePoint" />
            <mxPoint x="605.9" y="698.5" as="targetPoint" />
          </mxGeometry>
        </mxCell>
        <mxCell id="CE-3SqYxjU-QbydAG7AP-39" style="edgeStyle=orthogonalEdgeStyle;rounded=0;orthogonalLoop=1;jettySize=auto;html=1;exitX=0.5;exitY=0;exitDx=0;exitDy=0;entryX=0.5;entryY=1;entryDx=0;entryDy=0;endArrow=classicThin;endFill=1;strokeColor=#999999;" parent="1" source="o2bls5Q18p_dxOcrF1qy-79" target="U2_thxNx-trF02SfiVUL-5" edge="1">
          <mxGeometry relative="1" as="geometry" />
        </mxCell>
        <mxCell id="o2bls5Q18p_dxOcrF1qy-79" value="" style="shape=orEllipse;perimeter=ellipsePerimeter;whiteSpace=wrap;html=1;backgroundOutline=1;fillColor=#bac8d3;strokeColor=#23445d;fontSize=13;" parent="1" vertex="1">
          <mxGeometry x="913.75" y="697" width="18" height="18" as="geometry" />
        </mxCell>
        <mxCell id="o2bls5Q18p_dxOcrF1qy-83" value="" style="rounded=0;whiteSpace=wrap;html=1;fontSize=9;fillColor=#f5f5f5;fontColor=#333333;strokeColor=#666666;" parent="1" vertex="1">
          <mxGeometry x="779" y="828.75" width="170" height="25" as="geometry" />
        </mxCell>
        <mxCell id="o2bls5Q18p_dxOcrF1qy-107" value="&lt;font style=&quot;font-size: 9px;&quot;&gt;$$\boldsymbol h_1^l$$&lt;/font&gt;" style="ellipse;whiteSpace=wrap;html=1;aspect=fixed;fontSize=9;" parent="1" vertex="1">
          <mxGeometry x="797" y="832.25" width="18" height="18" as="geometry" />
        </mxCell>
        <mxCell id="o2bls5Q18p_dxOcrF1qy-109" value="&lt;font style=&quot;font-size: 9px;&quot;&gt;$$\boldsymbol h_2^l$$&lt;/font&gt;" style="ellipse;whiteSpace=wrap;html=1;aspect=fixed;fontSize=9;" parent="1" vertex="1">
          <mxGeometry x="829" y="832.25" width="18" height="18" as="geometry" />
        </mxCell>
        <mxCell id="GQHEzxmw2uMpqQWXIb2g-16" style="rounded=0;orthogonalLoop=1;jettySize=auto;html=1;exitX=0;exitY=0;exitDx=0;exitDy=0;entryX=0.5;entryY=1;entryDx=0;entryDy=0;endArrow=openThin;endFill=0;strokeColor=#666666;" parent="1" source="o2bls5Q18p_dxOcrF1qy-110" target="1AHJtD8_qgkJWAqxRs4a-207" edge="1">
          <mxGeometry relative="1" as="geometry" />
        </mxCell>
        <mxCell id="GQHEzxmw2uMpqQWXIb2g-17" style="rounded=0;orthogonalLoop=1;jettySize=auto;html=1;exitX=0;exitY=0;exitDx=0;exitDy=0;entryX=0.5;entryY=1;entryDx=0;entryDy=0;strokeColor=#666666;endArrow=openThin;endFill=0;" parent="1" source="o2bls5Q18p_dxOcrF1qy-110" target="1AHJtD8_qgkJWAqxRs4a-217" edge="1">
          <mxGeometry relative="1" as="geometry" />
        </mxCell>
        <mxCell id="GQHEzxmw2uMpqQWXIb2g-18" style="rounded=0;orthogonalLoop=1;jettySize=auto;html=1;exitX=1;exitY=0;exitDx=0;exitDy=0;entryX=0.5;entryY=1;entryDx=0;entryDy=0;endArrow=openThin;endFill=0;strokeColor=#666666;" parent="1" source="o2bls5Q18p_dxOcrF1qy-110" target="o2bls5Q18p_dxOcrF1qy-41" edge="1">
          <mxGeometry relative="1" as="geometry" />
        </mxCell>
        <mxCell id="o2bls5Q18p_dxOcrF1qy-110" value="&lt;font style=&quot;font-size: 9px;&quot;&gt;$$\boldsymbol h_n^l$$&lt;/font&gt;" style="ellipse;whiteSpace=wrap;html=1;aspect=fixed;fontSize=9;" parent="1" vertex="1">
          <mxGeometry x="913.5" y="832.25" width="18" height="18" as="geometry" />
        </mxCell>
        <mxCell id="o2bls5Q18p_dxOcrF1qy-111" value="&lt;font style=&quot;font-size: 9px;&quot;&gt;$$\boldsymbol h_3^l$$&lt;/font&gt;" style="ellipse;whiteSpace=wrap;html=1;aspect=fixed;fontSize=9;" parent="1" vertex="1">
          <mxGeometry x="861" y="832.25" width="18" height="18" as="geometry" />
        </mxCell>
        <mxCell id="o2bls5Q18p_dxOcrF1qy-112" value="&lt;font face=&quot;Verdana&quot; style=&quot;font-size: 9px;&quot;&gt;···&lt;/font&gt;" style="text;html=1;align=center;verticalAlign=middle;resizable=0;points=[];autosize=1;strokeColor=none;fillColor=none;fontSize=9;fontFamily=Courier New;" parent="1" vertex="1">
          <mxGeometry x="880" y="826.25" width="30" height="30" as="geometry" />
        </mxCell>
        <mxCell id="o2bls5Q18p_dxOcrF1qy-118" value="&lt;font face=&quot;Verdana&quot; style=&quot;font-size: 9px;&quot;&gt;···&lt;/font&gt;" style="text;html=1;align=center;verticalAlign=middle;resizable=0;points=[];autosize=1;strokeColor=none;fillColor=none;fontSize=9;fontFamily=Courier New;" parent="1" vertex="1">
          <mxGeometry x="881.75" y="646" width="30" height="30" as="geometry" />
        </mxCell>
        <mxCell id="HkuKFEnehhObNIfz7tYE-1" value="&lt;font style=&quot;font-size: 15px;&quot;&gt;①&lt;/font&gt;" style="text;html=1;align=center;verticalAlign=middle;resizable=0;points=[];autosize=1;strokeColor=none;fillColor=none;fontColor=#000000;labelBackgroundColor=default;" parent="1" vertex="1">
          <mxGeometry x="183.51" y="864.5" width="40" height="30" as="geometry" />
        </mxCell>
        <mxCell id="HkuKFEnehhObNIfz7tYE-2" value="&lt;font style=&quot;font-size: 15px;&quot;&gt;②&lt;/font&gt;" style="text;html=1;align=center;verticalAlign=middle;resizable=0;points=[];autosize=1;strokeColor=none;fillColor=none;" parent="1" vertex="1">
          <mxGeometry x="226.14" y="854.75" width="40" height="30" as="geometry" />
        </mxCell>
        <mxCell id="HkuKFEnehhObNIfz7tYE-3" value="&lt;font style=&quot;font-size: 15px;&quot;&gt;③&lt;/font&gt;" style="text;html=1;align=center;verticalAlign=middle;resizable=0;points=[];autosize=1;strokeColor=none;fillColor=none;" parent="1" vertex="1">
          <mxGeometry x="226.14" y="819" width="40" height="30" as="geometry" />
        </mxCell>
        <mxCell id="HkuKFEnehhObNIfz7tYE-4" value="&lt;font style=&quot;font-size: 15px;&quot;&gt;④&lt;/font&gt;" style="text;html=1;align=center;verticalAlign=middle;resizable=0;points=[];autosize=1;strokeColor=none;fillColor=none;fontColor=#000000;labelBackgroundColor=default;" parent="1" vertex="1">
          <mxGeometry x="311.14" y="819" width="40" height="30" as="geometry" />
        </mxCell>
        <mxCell id="U2_thxNx-trF02SfiVUL-3" value="&lt;font style=&quot;font-size: 9px;&quot;&gt;$$\boldsymbol x_1^l$$&lt;/font&gt;" style="ellipse;whiteSpace=wrap;html=1;aspect=fixed;fontSize=9;" parent="1" vertex="1">
          <mxGeometry x="796.75" y="650" width="18" height="18" as="geometry" />
        </mxCell>
        <mxCell id="U2_thxNx-trF02SfiVUL-4" value="&lt;font style=&quot;font-size: 9px;&quot;&gt;$$\boldsymbol x_2^l$$&lt;/font&gt;" style="ellipse;whiteSpace=wrap;html=1;aspect=fixed;fontSize=9;" parent="1" vertex="1">
          <mxGeometry x="828.75" y="650" width="18" height="18" as="geometry" />
        </mxCell>
        <mxCell id="U2_thxNx-trF02SfiVUL-5" value="&lt;font style=&quot;font-size: 9px;&quot;&gt;$$\boldsymbol x_n^l$$&lt;/font&gt;" style="ellipse;whiteSpace=wrap;html=1;aspect=fixed;fontSize=9;" parent="1" vertex="1">
          <mxGeometry x="913.75" y="650" width="18" height="18" as="geometry" />
        </mxCell>
        <mxCell id="U2_thxNx-trF02SfiVUL-6" value="&lt;font style=&quot;font-size: 9px;&quot;&gt;$$\boldsymbol x_3^l$$&lt;/font&gt;" style="ellipse;whiteSpace=wrap;html=1;aspect=fixed;fontSize=9;" parent="1" vertex="1">
          <mxGeometry x="860.75" y="650" width="18" height="18" as="geometry" />
        </mxCell>
        <mxCell id="GQHEzxmw2uMpqQWXIb2g-7" value="&lt;span style=&quot;font-size: 15px;&quot;&gt;&lt;font style=&quot;font-size: 15px;&quot; face=&quot;Times New Roman&quot;&gt;[&lt;span style=&quot;&quot;&gt;&lt;font style=&quot;font-size: 15px;&quot;&gt;Knowledge&lt;/font&gt;&lt;/span&gt;]&lt;/font&gt;&amp;nbsp; &amp;nbsp;&lt;/span&gt;" style="rounded=0;whiteSpace=wrap;html=1;fontSize=14;fontFamily=Courier New;fillColor=#d5e8d4;strokeColor=#82b366;fontStyle=0" parent="1" vertex="1">
          <mxGeometry x="498.87" y="901.75" width="222" height="25" as="geometry" />
        </mxCell>
        <mxCell id="GQHEzxmw2uMpqQWXIb2g-8" value="&lt;font face=&quot;Times New Roman&quot; style=&quot;font-size: 15px;&quot;&gt;[&lt;font style=&quot;font-size: 15px;&quot;&gt;Context&lt;/font&gt;]&amp;nbsp; &amp;nbsp;&amp;nbsp;&lt;/font&gt;" style="rounded=0;whiteSpace=wrap;html=1;fontSize=14;fontFamily=Courier New;fillColor=#dae8fc;strokeColor=#6c8ebf;fontStyle=0" parent="1" vertex="1">
          <mxGeometry x="721.12" y="901.75" width="237" height="25" as="geometry" />
        </mxCell>
        <mxCell id="GQHEzxmw2uMpqQWXIb2g-9" value="&lt;font face=&quot;Times New Roman&quot; style=&quot;font-size: 15px;&quot;&gt;[&lt;font style=&quot;font-size: 15px;&quot;&gt;Response&lt;/font&gt;]&amp;nbsp; &amp;nbsp;&lt;/font&gt;" style="rounded=0;whiteSpace=wrap;html=1;fontSize=14;fontFamily=Courier New;fillColor=#ffe6cc;strokeColor=#d79b00;fontStyle=0" parent="1" vertex="1">
          <mxGeometry x="958.12" y="901.75" width="151.88" height="25" as="geometry" />
        </mxCell>
        <mxCell id="o2bls5Q18p_dxOcrF1qy-7" value="&lt;i style=&quot;--tw-border-spacing-x: 0; --tw-border-spacing-y: 0; --tw-translate-x: 0; --tw-translate-y: 0; --tw-rotate: 0; --tw-skew-x: 0; --tw-skew-y: 0; --tw-scale-x: 1; --tw-scale-y: 1; --tw-pan-x: ; --tw-pan-y: ; --tw-pinch-zoom: ; --tw-scroll-snap-strictness: proximity; --tw-ordinal: ; --tw-slashed-zero: ; --tw-numeric-figure: ; --tw-numeric-spacing: ; --tw-numeric-fraction: ; --tw-ring-inset: ; --tw-ring-offset-width: 0px; --tw-ring-offset-color: #fff; --tw-ring-color: rgb(59 130 246 / 0.5); --tw-ring-offset-shadow: 0 0 #0000; --tw-ring-shadow: 0 0 #0000; --tw-shadow: 0 0 #0000; --tw-shadow-colored: 0 0 #0000; --tw-blur: ; --tw-brightness: ; --tw-contrast: ; --tw-grayscale: ; --tw-hue-rotate: ; --tw-invert: ; --tw-saturate: ; --tw-sepia: ; --tw-drop-shadow: ; --tw-backdrop-blur: ; --tw-backdrop-brightness: ; --tw-backdrop-contrast: ; --tw-backdrop-grayscale: ; --tw-backdrop-hue-rotate: ; --tw-backdrop-invert: ; --tw-backdrop-opacity: ; --tw-backdrop-saturate: ; --tw-backdrop-sepia: ; border-color: var(--border-color); font-family: &amp;quot;Times New Roman&amp;quot;; font-weight: 700;&quot;&gt;&lt;font style=&quot;font-size: 14px;&quot;&gt;$$(\boldsymbol K)$$&lt;/font&gt;&lt;/i&gt;" style="text;html=1;align=center;verticalAlign=middle;resizable=0;points=[];autosize=1;strokeColor=none;fillColor=none;" parent="1" vertex="1">
          <mxGeometry x="582.87" y="899.25" width="140" height="30" as="geometry" />
        </mxCell>
        <mxCell id="o2bls5Q18p_dxOcrF1qy-8" value="&lt;i style=&quot;--tw-border-spacing-x: 0; --tw-border-spacing-y: 0; --tw-translate-x: 0; --tw-translate-y: 0; --tw-rotate: 0; --tw-skew-x: 0; --tw-skew-y: 0; --tw-scale-x: 1; --tw-scale-y: 1; --tw-pan-x: ; --tw-pan-y: ; --tw-pinch-zoom: ; --tw-scroll-snap-strictness: proximity; --tw-ordinal: ; --tw-slashed-zero: ; --tw-numeric-figure: ; --tw-numeric-spacing: ; --tw-numeric-fraction: ; --tw-ring-inset: ; --tw-ring-offset-width: 0px; --tw-ring-offset-color: #fff; --tw-ring-color: rgb(59 130 246 / 0.5); --tw-ring-offset-shadow: 0 0 #0000; --tw-ring-shadow: 0 0 #0000; --tw-shadow: 0 0 #0000; --tw-shadow-colored: 0 0 #0000; --tw-blur: ; --tw-brightness: ; --tw-contrast: ; --tw-grayscale: ; --tw-hue-rotate: ; --tw-invert: ; --tw-saturate: ; --tw-sepia: ; --tw-drop-shadow: ; --tw-backdrop-blur: ; --tw-backdrop-brightness: ; --tw-backdrop-contrast: ; --tw-backdrop-grayscale: ; --tw-backdrop-hue-rotate: ; --tw-backdrop-invert: ; --tw-backdrop-opacity: ; --tw-backdrop-saturate: ; --tw-backdrop-sepia: ; border-color: var(--border-color); font-family: &amp;quot;Times New Roman&amp;quot;; font-weight: 700;&quot;&gt;&lt;font style=&quot;font-size: 14px;&quot;&gt;$$(\boldsymbol X)$$&lt;/font&gt;&lt;/i&gt;" style="text;html=1;align=center;verticalAlign=middle;resizable=0;points=[];autosize=1;strokeColor=none;fillColor=none;" parent="1" vertex="1">
          <mxGeometry x="804.5" y="899.25" width="140" height="30" as="geometry" />
        </mxCell>
        <mxCell id="o2bls5Q18p_dxOcrF1qy-9" value="&lt;i style=&quot;--tw-border-spacing-x: 0; --tw-border-spacing-y: 0; --tw-translate-x: 0; --tw-translate-y: 0; --tw-rotate: 0; --tw-skew-x: 0; --tw-skew-y: 0; --tw-scale-x: 1; --tw-scale-y: 1; --tw-pan-x: ; --tw-pan-y: ; --tw-pinch-zoom: ; --tw-scroll-snap-strictness: proximity; --tw-ordinal: ; --tw-slashed-zero: ; --tw-numeric-figure: ; --tw-numeric-spacing: ; --tw-numeric-fraction: ; --tw-ring-inset: ; --tw-ring-offset-width: 0px; --tw-ring-offset-color: #fff; --tw-ring-color: rgb(59 130 246 / 0.5); --tw-ring-offset-shadow: 0 0 #0000; --tw-ring-shadow: 0 0 #0000; --tw-shadow: 0 0 #0000; --tw-shadow-colored: 0 0 #0000; --tw-blur: ; --tw-brightness: ; --tw-contrast: ; --tw-grayscale: ; --tw-hue-rotate: ; --tw-invert: ; --tw-saturate: ; --tw-sepia: ; --tw-drop-shadow: ; --tw-backdrop-blur: ; --tw-backdrop-brightness: ; --tw-backdrop-contrast: ; --tw-backdrop-grayscale: ; --tw-backdrop-hue-rotate: ; --tw-backdrop-invert: ; --tw-backdrop-opacity: ; --tw-backdrop-saturate: ; --tw-backdrop-sepia: ; border-color: var(--border-color); font-family: &amp;quot;Times New Roman&amp;quot;; font-weight: 700; font-size: 14px;&quot;&gt;&lt;font style=&quot;font-size: 14px;&quot;&gt;$$(\boldsymbol&lt;br&gt;&amp;nbsp; Y)$$&lt;/font&gt;&lt;/i&gt;" style="text;html=1;align=center;verticalAlign=middle;resizable=0;points=[];autosize=1;strokeColor=none;fillColor=none;" parent="1" vertex="1">
          <mxGeometry x="1023.2499999999999" y="889.25" width="110" height="50" as="geometry" />
        </mxCell>
        <mxCell id="GQHEzxmw2uMpqQWXIb2g-10" value="&lt;font face=&quot;Times New Roman&quot; style=&quot;font-size: 11px;&quot;&gt;Which team won the 2022 World Cup champion?&lt;/font&gt;" style="rounded=0;whiteSpace=wrap;html=1;fontSize=14;fontFamily=Courier New;fillColor=#f5f5f5;strokeColor=#666666;fontStyle=0;fontColor=#333333;opacity=50;" parent="1" vertex="1">
          <mxGeometry x="721.12" y="876.75" width="237" height="25" as="geometry" />
        </mxCell>
        <mxCell id="GQHEzxmw2uMpqQWXIb2g-11" value="&lt;font face=&quot;Times New Roman&quot; style=&quot;font-size: 11px;&quot;&gt;&lt;font style=&quot;font-size: 11px;&quot;&gt;The champion is&amp;nbsp;&lt;/font&gt;&lt;font style=&quot;font-size: 11px;&quot;&gt;&lt;font style=&quot;font-size: 11px;&quot; color=&quot;#00994d&quot;&gt;Argentina&lt;/font&gt;.&lt;/font&gt;&lt;/font&gt;" style="rounded=0;whiteSpace=wrap;html=1;fontSize=14;fontFamily=Courier New;fillColor=#f5f5f5;strokeColor=#666666;fontStyle=0;fontColor=#333333;opacity=50;" parent="1" vertex="1">
          <mxGeometry x="958.12" y="876.75" width="151.88" height="25" as="geometry" />
        </mxCell>
        <mxCell id="GQHEzxmw2uMpqQWXIb2g-12" value="&lt;font face=&quot;Times New Roman&quot; style=&quot;font-size: 11px;&quot;&gt;Argentina won the 2022 World Cup champion.&lt;/font&gt;" style="rounded=0;whiteSpace=wrap;html=1;fontSize=14;fontFamily=Courier New;fillColor=#f5f5f5;strokeColor=#666666;fontStyle=0;fontColor=#333333;opacity=50;" parent="1" vertex="1">
          <mxGeometry x="498.87" y="876.75" width="222" height="25" as="geometry" />
        </mxCell>
        <mxCell id="GQHEzxmw2uMpqQWXIb2g-13" value="" style="rounded=0;whiteSpace=wrap;html=1;gradientColor=none;fillColor=none;strokeColor=#00994D;strokeWidth=1.5;dashed=1;" parent="1" vertex="1">
          <mxGeometry x="1047.13" y="880.75" width="47" height="17" as="geometry" />
        </mxCell>
        <mxCell id="GQHEzxmw2uMpqQWXIb2g-14" value="" style="endArrow=openThin;html=1;rounded=0;entryX=0.5;entryY=1;entryDx=0;entryDy=0;exitX=0;exitY=0;exitDx=0;exitDy=0;strokeColor=#666666;endFill=0;" parent="1" source="o2bls5Q18p_dxOcrF1qy-110" target="1AHJtD8_qgkJWAqxRs4a-201" edge="1">
          <mxGeometry width="50" height="50" relative="1" as="geometry">
            <mxPoint x="835.5" y="761.25" as="sourcePoint" />
            <mxPoint x="885.5" y="711.25" as="targetPoint" />
          </mxGeometry>
        </mxCell>
        <mxCell id="GQHEzxmw2uMpqQWXIb2g-20" style="rounded=0;orthogonalLoop=1;jettySize=auto;html=1;exitX=1;exitY=0;exitDx=0;exitDy=0;entryX=0.5;entryY=1;entryDx=0;entryDy=0;endArrow=openThin;endFill=0;strokeColor=#666666;" parent="1" source="o2bls5Q18p_dxOcrF1qy-110" target="o2bls5Q18p_dxOcrF1qy-46" edge="1">
          <mxGeometry relative="1" as="geometry">
            <mxPoint x="905.5" y="840.25" as="sourcePoint" />
            <mxPoint x="935.5" y="807.25" as="targetPoint" />
          </mxGeometry>
        </mxCell>
        <mxCell id="GQHEzxmw2uMpqQWXIb2g-21" style="rounded=0;orthogonalLoop=1;jettySize=auto;html=1;exitX=1;exitY=0;exitDx=0;exitDy=0;entryX=0.5;entryY=1;entryDx=0;entryDy=0;endArrow=openThin;endFill=0;strokeColor=#666666;" parent="1" source="o2bls5Q18p_dxOcrF1qy-110" target="o2bls5Q18p_dxOcrF1qy-56" edge="1">
          <mxGeometry relative="1" as="geometry">
            <mxPoint x="905.5" y="840.25" as="sourcePoint" />
            <mxPoint x="969.4999999999999" y="807.25" as="targetPoint" />
          </mxGeometry>
        </mxCell>
        <mxCell id="GQHEzxmw2uMpqQWXIb2g-27" style="rounded=0;orthogonalLoop=1;jettySize=auto;html=1;exitX=0.5;exitY=0;exitDx=0;exitDy=0;strokeColor=#666666;endArrow=openThin;endFill=0;entryX=0.5;entryY=1;entryDx=0;entryDy=0;" parent="1" source="1AHJtD8_qgkJWAqxRs4a-200" target="CE-3SqYxjU-QbydAG7AP-1" edge="1">
          <mxGeometry relative="1" as="geometry">
            <mxPoint x="850" y="744.25" as="sourcePoint" />
            <mxPoint x="914.5" y="662" as="targetPoint" />
          </mxGeometry>
        </mxCell>
        <mxCell id="GQHEzxmw2uMpqQWXIb2g-28" style="rounded=0;orthogonalLoop=1;jettySize=auto;html=1;exitX=0.5;exitY=0;exitDx=0;exitDy=0;entryX=0.5;entryY=1;entryDx=0;entryDy=0;strokeColor=#666666;endArrow=openThin;endFill=0;" parent="1" source="1AHJtD8_qgkJWAqxRs4a-206" target="CE-3SqYxjU-QbydAG7AP-1" edge="1">
          <mxGeometry relative="1" as="geometry">
            <mxPoint x="786.5" y="752.25" as="sourcePoint" />
            <mxPoint x="865" y="725.75" as="targetPoint" />
          </mxGeometry>
        </mxCell>
        <mxCell id="GQHEzxmw2uMpqQWXIb2g-30" style="rounded=0;orthogonalLoop=1;jettySize=auto;html=1;exitX=0.5;exitY=0;exitDx=0;exitDy=0;entryX=0.5;entryY=1;entryDx=0;entryDy=0;strokeColor=#666666;endArrow=openThin;endFill=0;" parent="1" source="1AHJtD8_qgkJWAqxRs4a-216" target="CE-3SqYxjU-QbydAG7AP-1" edge="1">
          <mxGeometry relative="1" as="geometry">
            <mxPoint x="858.5" y="741.75" as="sourcePoint" />
            <mxPoint x="865" y="725.75" as="targetPoint" />
          </mxGeometry>
        </mxCell>
        <mxCell id="GQHEzxmw2uMpqQWXIb2g-32" style="rounded=0;orthogonalLoop=1;jettySize=auto;html=1;exitX=0.5;exitY=0;exitDx=0;exitDy=0;entryX=0.5;entryY=1;entryDx=0;entryDy=0;strokeColor=#666666;endArrow=openThin;endFill=0;" parent="1" source="o2bls5Q18p_dxOcrF1qy-55" target="CE-3SqYxjU-QbydAG7AP-31" edge="1">
          <mxGeometry relative="1" as="geometry">
            <mxPoint x="1016.25" y="743.25" as="sourcePoint" />
            <mxPoint x="1010.8320000000001" y="729.141" as="targetPoint" />
          </mxGeometry>
        </mxCell>
        <mxCell id="GQHEzxmw2uMpqQWXIb2g-33" style="rounded=0;orthogonalLoop=1;jettySize=auto;html=1;exitX=0.5;exitY=0;exitDx=0;exitDy=0;entryX=0.5;entryY=1;entryDx=0;entryDy=0;strokeColor=#666666;endArrow=openThin;endFill=0;" parent="1" source="o2bls5Q18p_dxOcrF1qy-45" target="CE-3SqYxjU-QbydAG7AP-31" edge="1">
          <mxGeometry relative="1" as="geometry">
            <mxPoint x="1020.5" y="752.25" as="sourcePoint" />
            <mxPoint x="1006.5" y="728.75" as="targetPoint" />
          </mxGeometry>
        </mxCell>
        <mxCell id="GQHEzxmw2uMpqQWXIb2g-34" style="rounded=0;orthogonalLoop=1;jettySize=auto;html=1;exitX=0.5;exitY=0;exitDx=0;exitDy=0;entryX=0.5;entryY=1;entryDx=0;entryDy=0;strokeColor=#666666;endArrow=openThin;endFill=0;" parent="1" source="o2bls5Q18p_dxOcrF1qy-40" target="CE-3SqYxjU-QbydAG7AP-31" edge="1">
          <mxGeometry relative="1" as="geometry">
            <mxPoint x="974.4999999999999" y="752.25" as="sourcePoint" />
            <mxPoint x="1006.5" y="728.75" as="targetPoint" />
          </mxGeometry>
        </mxCell>
        <mxCell id="GQHEzxmw2uMpqQWXIb2g-45" value="&lt;span style=&quot;font-size: 13px;&quot;&gt;&lt;font style=&quot;font-size: 13px;&quot;&gt;$$v^l_3$$&lt;/font&gt;&lt;/span&gt;" style="rounded=0;whiteSpace=wrap;html=1;fontFamily=Times New Roman;fontSize=13;fillColor=#e1d5e7;strokeColor=#9673a6;" parent="1" vertex="1">
          <mxGeometry x="831.5" y="747.75" width="20" height="20" as="geometry" />
        </mxCell>
        <mxCell id="GQHEzxmw2uMpqQWXIb2g-46" value="&lt;font style=&quot;font-size: 13px;&quot;&gt;$$k^l_3$$&lt;/font&gt;" style="rounded=0;whiteSpace=wrap;html=1;fontFamily=Times New Roman;fontSize=13;fillColor=#e1d5e7;strokeColor=#9673a6;" parent="1" vertex="1">
          <mxGeometry x="831.5" y="790.75" width="20" height="20" as="geometry" />
        </mxCell>
        <mxCell id="GQHEzxmw2uMpqQWXIb2g-47" value="" style="ellipse;whiteSpace=wrap;html=1;aspect=fixed;fontFamily=Times New Roman;fontSize=13;" parent="1" vertex="1">
          <mxGeometry x="833" y="771.75" width="15" height="15" as="geometry" />
        </mxCell>
        <mxCell id="GQHEzxmw2uMpqQWXIb2g-48" value="" style="line;strokeWidth=1;html=1;fontFamily=Times New Roman;fontSize=13;fillColor=none;" parent="1" vertex="1">
          <mxGeometry x="834" y="775.25" width="7" height="10" as="geometry" />
        </mxCell>
        <mxCell id="GQHEzxmw2uMpqQWXIb2g-49" value="" style="line;strokeWidth=1;html=1;fontFamily=Times New Roman;fontSize=13;fillColor=none;rotation=-40;" parent="1" vertex="1">
          <mxGeometry x="840" y="774.25" width="7" height="7" as="geometry" />
        </mxCell>
        <mxCell id="GQHEzxmw2uMpqQWXIb2g-50" value="&lt;span style=&quot;font-size: 13px;&quot;&gt;&lt;font style=&quot;font-size: 13px;&quot;&gt;$${\tilde v}^l_3$$&lt;/font&gt;&lt;/span&gt;" style="rounded=0;whiteSpace=wrap;html=1;fontFamily=Times New Roman;fontSize=13;fillColor=#d5e8d4;strokeColor=#82b366;" parent="1" vertex="1">
          <mxGeometry x="1021.5" y="748" width="20" height="20" as="geometry" />
        </mxCell>
        <mxCell id="GQHEzxmw2uMpqQWXIb2g-51" value="&lt;font style=&quot;font-size: 13px;&quot;&gt;$$\tilde k^l_3$$&lt;/font&gt;" style="rounded=0;whiteSpace=wrap;html=1;fontFamily=Times New Roman;fontSize=13;fillColor=#d5e8d4;strokeColor=#82b366;" parent="1" vertex="1">
          <mxGeometry x="1021.5" y="791" width="20" height="20" as="geometry" />
        </mxCell>
        <mxCell id="GQHEzxmw2uMpqQWXIb2g-52" value="" style="ellipse;whiteSpace=wrap;html=1;aspect=fixed;fontFamily=Times New Roman;fontSize=13;" parent="1" vertex="1">
          <mxGeometry x="1023.75" y="772" width="14.25" height="14.25" as="geometry" />
        </mxCell>
        <mxCell id="GQHEzxmw2uMpqQWXIb2g-53" value="" style="line;strokeWidth=1;html=1;fontFamily=Times New Roman;fontSize=13;fillColor=none;" parent="1" vertex="1">
          <mxGeometry x="1024.75" y="775.5" width="7" height="10" as="geometry" />
        </mxCell>
        <mxCell id="GQHEzxmw2uMpqQWXIb2g-54" value="" style="line;strokeWidth=1;html=1;fontFamily=Times New Roman;fontSize=13;fillColor=none;rotation=-40;" parent="1" vertex="1">
          <mxGeometry x="1030.75" y="774.5" width="7" height="7" as="geometry" />
        </mxCell>
        <mxCell id="GQHEzxmw2uMpqQWXIb2g-55" style="rounded=0;orthogonalLoop=1;jettySize=auto;html=1;exitX=0;exitY=0;exitDx=0;exitDy=0;entryX=0.5;entryY=1;entryDx=0;entryDy=0;strokeColor=#666666;endArrow=openThin;endFill=0;" parent="1" source="o2bls5Q18p_dxOcrF1qy-110" target="GQHEzxmw2uMpqQWXIb2g-46" edge="1">
          <mxGeometry relative="1" as="geometry">
            <mxPoint x="893.5" y="840.25" as="sourcePoint" />
            <mxPoint x="898.5" y="818.25" as="targetPoint" />
          </mxGeometry>
        </mxCell>
        <mxCell id="GQHEzxmw2uMpqQWXIb2g-56" style="rounded=0;orthogonalLoop=1;jettySize=auto;html=1;exitX=1;exitY=0;exitDx=0;exitDy=0;entryX=0.5;entryY=1;entryDx=0;entryDy=0;endArrow=openThin;endFill=0;strokeColor=#666666;" parent="1" source="o2bls5Q18p_dxOcrF1qy-110" target="GQHEzxmw2uMpqQWXIb2g-51" edge="1">
          <mxGeometry relative="1" as="geometry">
            <mxPoint x="905.5" y="840.25" as="sourcePoint" />
            <mxPoint x="1003.5" y="819.25" as="targetPoint" />
          </mxGeometry>
        </mxCell>
        <mxCell id="GQHEzxmw2uMpqQWXIb2g-58" style="rounded=0;orthogonalLoop=1;jettySize=auto;html=1;exitX=0.5;exitY=0;exitDx=0;exitDy=0;entryX=0.5;entryY=1;entryDx=0;entryDy=0;strokeColor=#666666;endArrow=openThin;endFill=0;" parent="1" source="GQHEzxmw2uMpqQWXIb2g-45" target="CE-3SqYxjU-QbydAG7AP-1" edge="1">
          <mxGeometry relative="1" as="geometry">
            <mxPoint x="819.5" y="756.25" as="sourcePoint" />
            <mxPoint x="865" y="725.75" as="targetPoint" />
          </mxGeometry>
        </mxCell>
        <mxCell id="GQHEzxmw2uMpqQWXIb2g-59" style="rounded=0;orthogonalLoop=1;jettySize=auto;html=1;exitX=0.5;exitY=0;exitDx=0;exitDy=0;strokeColor=#666666;endArrow=openThin;endFill=0;entryX=0.5;entryY=1;entryDx=0;entryDy=0;" parent="1" source="GQHEzxmw2uMpqQWXIb2g-50" target="CE-3SqYxjU-QbydAG7AP-31" edge="1">
          <mxGeometry relative="1" as="geometry">
            <mxPoint x="1008.5" y="756.25" as="sourcePoint" />
            <mxPoint x="1005.0469999999998" y="727.59" as="targetPoint" />
          </mxGeometry>
        </mxCell>
        <mxCell id="CE-3SqYxjU-QbydAG7AP-20" style="edgeStyle=orthogonalEdgeStyle;rounded=0;orthogonalLoop=1;jettySize=auto;html=1;exitX=1;exitY=0.5;exitDx=0;exitDy=0;entryX=0;entryY=0.5;entryDx=0;entryDy=0;endArrow=classicThin;endFill=1;strokeColor=#999999;" parent="1" source="CE-3SqYxjU-QbydAG7AP-1" target="o2bls5Q18p_dxOcrF1qy-79" edge="1">
          <mxGeometry relative="1" as="geometry" />
        </mxCell>
        <mxCell id="CE-3SqYxjU-QbydAG7AP-1" value="" style="rounded=0;whiteSpace=wrap;html=1;fillColor=#f5f5f5;fontColor=#333333;strokeColor=#666666;" parent="1" vertex="1">
          <mxGeometry x="784.5" y="682" width="89" height="49" as="geometry" />
        </mxCell>
        <mxCell id="CE-3SqYxjU-QbydAG7AP-2" value="" style="rounded=0;whiteSpace=wrap;html=1;fillColor=#e1d5e7;strokeColor=#9673a6;" parent="1" vertex="1">
          <mxGeometry x="829.5" y="696" width="15" height="30" as="geometry" />
        </mxCell>
        <mxCell id="CE-3SqYxjU-QbydAG7AP-3" value="" style="rounded=0;whiteSpace=wrap;html=1;fillColor=#e1d5e7;strokeColor=#9673a6;" parent="1" vertex="1">
          <mxGeometry x="814.5" y="713" width="15" height="13" as="geometry" />
        </mxCell>
        <mxCell id="CE-3SqYxjU-QbydAG7AP-4" value="" style="rounded=0;whiteSpace=wrap;html=1;fillColor=#e1d5e7;strokeColor=#9673a6;" parent="1" vertex="1">
          <mxGeometry x="844.5" y="710" width="15" height="16" as="geometry" />
        </mxCell>
        <mxCell id="CE-3SqYxjU-QbydAG7AP-5" value="&lt;font color=&quot;#b5739d&quot; style=&quot;font-size: 8px;&quot;&gt;Argentina&lt;/font&gt;" style="text;html=1;align=center;verticalAlign=middle;resizable=0;points=[];autosize=1;strokeColor=none;fillColor=none;" parent="1" vertex="1">
          <mxGeometry x="776.75" y="681.75" width="60" height="30" as="geometry" />
        </mxCell>
        <mxCell id="CE-3SqYxjU-QbydAG7AP-11" value="" style="rounded=0;whiteSpace=wrap;html=1;gradientColor=none;fillColor=none;strokeColor=#666666;strokeWidth=1.5;dashed=1;" parent="1" vertex="1">
          <mxGeometry x="504" y="880.75" width="543" height="17" as="geometry" />
        </mxCell>
        <mxCell id="CE-3SqYxjU-QbydAG7AP-12" value="" style="endArrow=classicThin;html=1;rounded=0;entryX=0.5;entryY=1;entryDx=0;entryDy=0;exitX=0.794;exitY=-0.011;exitDx=0;exitDy=0;exitPerimeter=0;dashed=1;endFill=1;strokeWidth=1.5;strokeColor=#666666;" parent="1" edge="1">
          <mxGeometry width="50" height="50" relative="1" as="geometry">
            <mxPoint x="910.89" y="882" as="sourcePoint" />
            <mxPoint x="910.89" y="851.7500000000002" as="targetPoint" />
          </mxGeometry>
        </mxCell>
        <mxCell id="CE-3SqYxjU-QbydAG7AP-13" value="" style="rounded=0;whiteSpace=wrap;html=1;fillColor=#e1d5e7;strokeColor=#9673a6;" parent="1" vertex="1">
          <mxGeometry x="799.5" y="705" width="15" height="21" as="geometry" />
        </mxCell>
        <mxCell id="CE-3SqYxjU-QbydAG7AP-21" value="&lt;font color=&quot;#b5739d&quot; style=&quot;font-size: 8px;&quot;&gt;France&lt;/font&gt;" style="text;html=1;align=center;verticalAlign=middle;resizable=0;points=[];autosize=1;strokeColor=none;fillColor=none;" parent="1" vertex="1">
          <mxGeometry x="812.25" y="673.75" width="50" height="30" as="geometry" />
        </mxCell>
        <mxCell id="CE-3SqYxjU-QbydAG7AP-28" value="&lt;font color=&quot;#b5739d&quot; style=&quot;font-size: 7px;&quot;&gt;Argentina&lt;/font&gt;" style="text;html=1;align=center;verticalAlign=middle;resizable=0;points=[];autosize=1;strokeColor=none;fillColor=none;" parent="1" vertex="1">
          <mxGeometry x="969.4999999999999" y="671.75" width="50" height="30" as="geometry" />
        </mxCell>
        <mxCell id="CE-3SqYxjU-QbydAG7AP-38" style="edgeStyle=orthogonalEdgeStyle;rounded=0;orthogonalLoop=1;jettySize=auto;html=1;exitX=0;exitY=0.5;exitDx=0;exitDy=0;entryX=1;entryY=0.5;entryDx=0;entryDy=0;endArrow=classicThin;endFill=1;strokeColor=#999999;" parent="1" source="CE-3SqYxjU-QbydAG7AP-31" target="o2bls5Q18p_dxOcrF1qy-79" edge="1">
          <mxGeometry relative="1" as="geometry" />
        </mxCell>
        <mxCell id="CE-3SqYxjU-QbydAG7AP-31" value="" style="rounded=0;whiteSpace=wrap;html=1;fillColor=#f5f5f5;fontColor=#333333;strokeColor=#666666;" parent="1" vertex="1">
          <mxGeometry x="972.13" y="682" width="89" height="49" as="geometry" />
        </mxCell>
        <mxCell id="CE-3SqYxjU-QbydAG7AP-32" value="" style="rounded=0;whiteSpace=wrap;html=1;fillColor=#d5e8d4;strokeColor=#82b366;" parent="1" vertex="1">
          <mxGeometry x="1017.1300000000001" y="708" width="15" height="18" as="geometry" />
        </mxCell>
        <mxCell id="CE-3SqYxjU-QbydAG7AP-33" value="" style="rounded=0;whiteSpace=wrap;html=1;fillColor=#d5e8d4;strokeColor=#82b366;" parent="1" vertex="1">
          <mxGeometry x="1002.1300000000001" y="712" width="15" height="14" as="geometry" />
        </mxCell>
        <mxCell id="CE-3SqYxjU-QbydAG7AP-34" value="" style="rounded=0;whiteSpace=wrap;html=1;fillColor=#d5e8d4;strokeColor=#82b366;" parent="1" vertex="1">
          <mxGeometry x="1032.13" y="715" width="15" height="11" as="geometry" />
        </mxCell>
        <mxCell id="CE-3SqYxjU-QbydAG7AP-35" value="&lt;font color=&quot;#00994d&quot; style=&quot;font-size: 8px;&quot;&gt;Argentina&lt;/font&gt;" style="text;html=1;align=center;verticalAlign=middle;resizable=0;points=[];autosize=1;strokeColor=none;fillColor=none;" parent="1" vertex="1">
          <mxGeometry x="962.13" y="672.75" width="60" height="30" as="geometry" />
        </mxCell>
        <mxCell id="CE-3SqYxjU-QbydAG7AP-36" value="" style="rounded=0;whiteSpace=wrap;html=1;fillColor=#d5e8d4;strokeColor=#82b366;" parent="1" vertex="1">
          <mxGeometry x="987.1300000000001" y="696" width="15" height="30" as="geometry" />
        </mxCell>
        <mxCell id="CE-3SqYxjU-QbydAG7AP-30" value="&lt;font color=&quot;#00994d&quot; style=&quot;font-size: 8px;&quot;&gt;France&lt;/font&gt;" style="text;html=1;align=center;verticalAlign=middle;resizable=0;points=[];autosize=1;strokeColor=none;fillColor=none;" parent="1" vertex="1">
          <mxGeometry x="999.6300000000001" y="682" width="50" height="30" as="geometry" />
        </mxCell>
        <mxCell id="G6AXgyXZhz_YysNxfwVA-1" value="&lt;font face=&quot;Times New Roman&quot; style=&quot;font-size: 15px;&quot;&gt;[&lt;font style=&quot;font-size: 15px;&quot;&gt;Response&lt;/font&gt;]&lt;/font&gt;&amp;nbsp; &amp;nbsp;" style="rounded=0;whiteSpace=wrap;html=1;fontSize=14;fontFamily=Courier New;fillColor=#ffe6cc;strokeColor=#d79b00;fontStyle=0" parent="1" vertex="1">
          <mxGeometry x="530" y="665.5" width="154" height="25" as="geometry" />
        </mxCell>
        <mxCell id="G6AXgyXZhz_YysNxfwVA-2" value="&lt;i style=&quot;--tw-border-spacing-x: 0; --tw-border-spacing-y: 0; --tw-translate-x: 0; --tw-translate-y: 0; --tw-rotate: 0; --tw-skew-x: 0; --tw-skew-y: 0; --tw-scale-x: 1; --tw-scale-y: 1; --tw-pan-x: ; --tw-pan-y: ; --tw-pinch-zoom: ; --tw-scroll-snap-strictness: proximity; --tw-ordinal: ; --tw-slashed-zero: ; --tw-numeric-figure: ; --tw-numeric-spacing: ; --tw-numeric-fraction: ; --tw-ring-inset: ; --tw-ring-offset-width: 0px; --tw-ring-offset-color: #fff; --tw-ring-color: rgb(59 130 246 / 0.5); --tw-ring-offset-shadow: 0 0 #0000; --tw-ring-shadow: 0 0 #0000; --tw-shadow: 0 0 #0000; --tw-shadow-colored: 0 0 #0000; --tw-blur: ; --tw-brightness: ; --tw-contrast: ; --tw-grayscale: ; --tw-hue-rotate: ; --tw-invert: ; --tw-saturate: ; --tw-sepia: ; --tw-drop-shadow: ; --tw-backdrop-blur: ; --tw-backdrop-brightness: ; --tw-backdrop-contrast: ; --tw-backdrop-grayscale: ; --tw-backdrop-hue-rotate: ; --tw-backdrop-invert: ; --tw-backdrop-opacity: ; --tw-backdrop-saturate: ; --tw-backdrop-sepia: ; border-color: var(--border-color); font-family: &amp;quot;Times New Roman&amp;quot;; font-weight: 700;&quot;&gt;&lt;font style=&quot;font-size: 14px;&quot;&gt;$$(\boldsymbol&amp;nbsp; Y)$$&lt;/font&gt;&lt;/i&gt;" style="text;html=1;align=center;verticalAlign=middle;resizable=0;points=[];autosize=1;strokeColor=none;fillColor=none;" parent="1" vertex="1">
          <mxGeometry x="569" y="663" width="150" height="30" as="geometry" />
        </mxCell>
        <mxCell id="G6AXgyXZhz_YysNxfwVA-6" value="" style="shape=image;verticalLabelPosition=bottom;labelBackgroundColor=default;verticalAlign=top;aspect=fixed;imageAspect=0;image=data:image/png,iVBORw0KGgoAAAANSUhEUgAAAYAAAABYCAYAAAD83SBJAAAACXBIWXMAABYlAAAWJQFJUiTwAAAgAElEQVR4nO2dd1xTV9jHf4GQEEBANiISEAqIAxzI655ordraWtzaOqt1lNoiqCjiomq1WrUOsGpddVcq1TqrtVgcRVQQUUGGZQiEGci67x++8EoZuTfkJgHO9/PJR7k545ebm/vcc87zPIdDURQFAoFAILQ49LQtgEAgEAjagRgAAoFAaKEQA0AgEAgtFC4AyOVypKamQpvLAQ4ODjAyMlJarqSkBNnZ2RpQVJNWrVrBzs5O4/1qgoKCAuTn52ulbw6HAy6XCz6fDz6fDx6PV/0iEAjswgWAx48fY9u2bVo1AIsXL0aHDh2Ulrt+/TrOnj2rAUU18fX1xZw5czTerya4deuWVs4p8MYAGBoawsjICCYmJjAyMoKxsTGMjIzA4/GqjUKVgbC0tISNjQ0sLS2hp0cGsARCY+ACwNWrVxEVFaVVIePHj6dlAC5cuIB9+/ZpQFFNysvLm60BiI+P18o5bQg9PT0YGRlVGwRjY2OYmJjAyckJbm5uaN++PWxsbGBrawtra2vY2NjA0NBQ27IJhCYFFwDs7e3h5+eH8vJylJeXo7CwECKRCHK5nJVOjYyMYG5uDlNTUwgEAggEArRu3ZpWXTc3N/Tp0wdSqRRyuRwlJSUQiUTIyclRmz4ulwtzc3OYmZnB2NgYAoEAnp6eamtf13ByckLPnj1RXl6OsrIyiEQiiEQiKBQKrWlSKBQoLS1FaWlpjeO3b98GABgYGEAoFMLNzQ2urq5wdXWFg4MDbGxsYG9vDycnJ3C5XG1IJxCaDByKoqjs7GwkJiZCJBKhoKAAWVlZSE9PR0ZGBlJSUpCWltbojoyNjeHp6QmhUIi2bdvCwcEBtra2MDMzg5mZGXx8fGBqaqq0nZcvXyIjIwOVlZWQSCTIy8tDVlYW7t27h2vXrqGgoEAlfVwuF23btoVQKISLiwucnJxgb28PS0tLmJqaQigUwtXVVaW2dZ2srCwkJSVBJBIhPz8fWVlZyMzMRGZmJp49e4bU1FRtS6SFra0tXF1d0aFDB/j5+cHDwwNubm6wtrbWtjQCQSfh1BcIJpfLkZiYiJs3b+L06dO4fv26yiMCR0dHvP/++3jvvffQo0cPWFpaNkp0XeTk5GDdunXYtm0bo3pcLhedO3eGt7c3unXrhh49eqBLly4tfhGy6vu/desWTp48iWvXrqk8IhAIBBAKhTAxMQGPx4O+vj5kMhmkUmn1v1WvqhGdVCptlH5DQ0P4+vqiX79+6NatG7p06QKhUAgOh9OodgmE5kS9BuBt4uPjsWDBAvz555+MOzA2NsbKlSsxf/58CAQClUTSJTMzE46OjrTL29raYujQoRg3bhz8/f1b/E2/PuLj4zFjxgzcv3+fcd133nkH/v7+8PPzg5WVFYyMjGBgYIDKykpUVFRU/1tRUQGxWIy8vDxkZmYiPz+/eiqqsLAQWVlZqKioUEl/mzZtMHr0aPj7+8PHxwdCoVCldgiE5gYtAwAAv//+O0aNGgWJRMKog8GDByM6Opr1mz8AvHr1Cg4ODrTKdu7cGePGjcNnn30GCwsLlpU1fY4cOYJJkyYxqiMQCPD999/jk08+gb6+Pu16FEVVT0VWTUclJCRUT0emp6dDLBYz/QhwcHDABx98gGHDhqFPnz60150IhOYKbQMgl8vRpUsXPH78mFEHkZGRmDFjhkrimHLw4EFMmzatwTL6+vro3bs3Fi5ciDFjxhBXQpqIRCI4OztDJBLRruPu7o6EhAS1jKwUCgWSk5Nx584d3L17FykpKXj06BEyMzMZtyUUCjFz5kyMHDkSnTp1ItcAoeVCMeCzzz6jADB6JSUlMelCZbKzs6n+/fs3qIXP51OjR4+mYmNjNaKpudGjRw9G3/3IkSNZ0aFQKKikpCRq8+bN1LBhwyhLS0vG16W+vj41ZswY6syZM1RRURErOgkEXYfRow9TLxgul8toTl5VZDIZ9u/fjxs3btRbxsjICGPHjsW3334LPz8/1jU1R9q1a8eoPFveNxwOBx4eHggMDMSWLVvw+eefo2/fvrQiyauQy+U4c+YMvvjiC+zbtw+5ubmsaCUQdBlGBoBpKoSqAB42oSgKly5dwtatW+uNZDYzM8PkyZOxYcOGZuvKqQmYem9pwg/f09MTYWFhiIiIwKeffoq2bdsyqv/y5UuEhoZi+/btanF3JhCaEox+oUxv5kyeyFTl1q1bCAkJwb///lvn+61bt8a0adOwfPlyVtxPWxK6GmnL4XDQq1cvdOnSBS4uLjh06BDi4+NppzYpLS1FREQECgoKEBgYiPbt27OsmEDQDRiNAPh8PqPG2XarjI+Px/Lly/HgwYM637e0tMTMmTOxatUqcvNXAwYGBtqW0CDGxsYIDAxEWFgYBg8ezMjzSCqVYufOndi4cSPy8vJYVEkg6A6MDACTH5Qq5ZkQHx+PVatW4Y8//qjzfWtra8yePRsrVqygFWFMUA6b36e64HA4GD16NDZu3IihQ4cy8vChKApRUVHYs2cPysrKWFTZspBIJPjtt98QExODe/fuaVsO4S2aZLKUu3fvYu3atfVmsLS1tcWcOXOwZMkSjUxDEXQPb29vREREVK8R0Y1ilslk2LBhAxwdHTFx4kS1rGM8fPhQrbmqGqJVq1bo2bOnRvqiS3x8PBYtWgSKouDp6Yljx47p3O+yuLgYcXFxrPfD4/HQr18/1vuhS5MzALdv30Z4eDh+++23Ot+3t7fH3Llz8fXXX+vsnDVBM3Tp0gUREREoLy/HzZs3adcrLi7GihUrYGdnB39//0brOHDgAC5dutTodujg4eGBn3/+WSN90YGiKOzZswcpKSkAgNTUVMTGxmLw4MFaVlaT9PR0LF68mPV+rKyscOXKFdb7oUuTMQAKhQK3bt1CWFgYrl69WmcZBwcHfP755/jyyy8Zr1cQmife3t5YvXo1ZsyYgefPn9OuV+Ud5OzsDDc3t0ZpkEgkKC4uRkVFBcrKylBaWqq2vTc4HA6MjY3RqlUr8Pl8xpH6bPPy5Uv88ssv1X/L5XLs2LED/fv316lsrQqFAiUlJSgvL0dxcbFKkeb1weVyYWZmBoFAwLpXJFN05xtoAJlMhqtXryI8PBy3bt2qs4yjoyMWLFiAL774QucXKwmapX///li8eDGWLl3KKJI5Li4O27Ztw3fffdeo9Y8PP/wQHh4eKCkpQX5+PnJycpCTk4MXL17g2bNnKhmDqn0R2rRpAxsbG1hbW8PExISxGyzbHDlyBK9fv65x7Pfff8fjx4/RpUsXLamqTZs2bRAUFITCwkJkZ2fj33//RXp6OhITE1FSUsK4PR6Phw4dOkAoFMLGxgZt2rSBmZkZbG1tWVDfCJhEjV28eJFRtKWLi0ujI9XEYjF18uRJqnPnzvX2IxQKqc2bN1NSqbTR/RHqJygoiNH3P2vWLG1LrqaiooKaM2cO44hhCwsL6sGDB2rVIpVKqcTERCoqKooaNmwYxeFwGGny9fWltm/fTj148ICSSCRq1aZO8vPzKQ8Pjzo/w9y5cymFQqFtifVSUFBAXbp0iQoMDKRsbGwYfT8CgYCaNm0adfbsWSorK0unP6dOG4Di4mLqxx9/pJydnRvsY/v27ZRMJmtUXwTlNGUDQFEU9eLFC8rV1ZWxEZg+fTprDxePHj2ivLy8aGsxMzOjLly4wIoWdXP06NF6P4eNjQ2VmpqqbYlKEYvF1Pz58xldL0OHDqUKCgq0LZ0WOpsF6/Xr19i/fz+WLFlS74Ykbm5uCAoKwty5c5uEiyJBuzg7O2PBggWM555PnjyJ+Ph4VjR5eXlh+vTptMsPHz4cQ4cOZUWLOqmoqMCePXvqfT83NxeHDh3SoCLVMDQ0xPz582FjY0OrvEAgwOLFi5tMplmdNABZWVn44YcfsHz58npztLi7u2PJkiWYPXs2yeZIoM3UqVPh4+PDqE5xcTG2bNnC2gIrE0+jmTNnNonr/f79+0r3Dzl48GCt9QFdxN3dHb1796ZV1tXVVec8nBpC566kZ8+eYcuWLVi7di2Ki4vrLNOhQwcsXboU06dPJzs8ERhhbm6O+fPnM75ufvnlFyQlJbGiycXFhfaopHPnzqxoUCcKhQK7du1SuqtbSkoKoqOjNaSqcdB9aOjcubNOeTcpQ6cMwIMHDxAREYEtW7agsrKyzjKdOnXC8uXLMXXqVHLzJ6jEyJEj4eTkxKhOWVlZDXdGdWJkZERrwyR9fX1YWVmxokGdpKam4tdff6VVdvfu3SgtLWVZUeOh673DNGGmttEJA0BRFGJjYxEeHo6oqKh6oza9vb0RGhqKCRMmaFghoTlhYWGB8ePHM6534cIFlfdFVgYdA8Dn85vE9M/BgwdRWFhIq+ydO3dU2mpW09CNXNa1CGdlaP1qksvluHLlCpYtW4bTp0/XW65r165YuXIlxo4dq0F1hObKpEmTGAcLxsfH15t1trHQmTZoCvEtr1+/xpEjR2iXVygU2LFjh9LpIm1Dd1qnKU3/AFo2AJWVlYiOjkZQUBCuXbtWb7kePXpg1apV+OCDD8i0D0EteHl54Z133mFURywWN3idNgY613VTuPZjYmLw7NkzRnWuXLlSb0ZfXYHuuW8K39HbaM0AlJaW4vjx4/j666/xzz//1FvOz88Pq1evxsiRIzWojtDc4XA4KrlTnj9/ngU1zQOxWIy9e/fWOGZpaQkTExOl9Xbt2sXa9BqhfrRiAAoKCnDw4EEEBQXV+7TA4XDQu3dvrF27FsOGDdOwQkJLQJVEbzdu3EBFRQULapo+cXFxuH37do1jI0aMQN++fZXWPXv2bL3xPgT20LgBePXqFXbv3o1ly5YhOzu7zjIcDgd9+/bFunXrMGjQIA0rJLQUfH19aS2+vs2rV6/qvW5bMnK5HLt27YJMJqs+JhAIMHv2bHz22WdK58bz8/Nx4MABtmUS/oNGDcDz58+xbds2hIeH15uUi8PhYMCAAVi/fr1O5c0mND9at27NeKN74E2gIqEmz549Q0xMTI1j3bt3h5+fH4YMGYIOHToobePw4cMa2zeB8AaNGYBHjx5hw4YN2LRpU4NDaE9PT0RERKBXr16akkZowXh4eDCuw5YnUFNm//79NQI39fT0MGfOHHC5XBgZGWHGjBlK23jx4kW9mzwR2IF1A0BRFOLi4rB69Wrs2bMHcrm8wfJt27ZlHKRDIKiKKgbg1atXLChpuuTm5uLYsWM1jrm4uOC9996r/nvs2LFo06aN0rb27t1bbwYAgvph1QDI5XJcv34dy5cvx/Hjx2nVuX79On744YcmkSOE0PRxcXFhXIeMAGpy7tw5pKWl1Tg2efJkmJubV//dpk0bWjE89+/fx/Xr19WskFAfrBqAoqIiBAUFMdoOTyKRYMOGDdi7dy/taEICQVWsra0Z1yEjgP+nrKwMkZGRNY5ZWlpi4sSJtcp++umnaNWqVYPtURSFnTt36tzOZs0VVg2ASCTC3bt3GdcTi8VYt24dfvzxRzIcJLCKshtSXRAvoP8nNjYWd+7cqXFs+PDhdW6j2aVLF1qOHdevX8f9+/fVppFQP1pPBVEfpaWlCA8Px8GDB1FWVqZtOYRmirIgpbpQZYvA5kiV6+fbAVx8Ph+zZs2qszyHw6HlElpZWYmdO3eSwDANoLMGAHgzhRQWFoYjR46odZNmAqEKQ0NDjdRpjjx58gQXL16scaxbt24NevANHjwYHTt2VNp2dHQ045QSBOZozAComiMjPz8foaGhOHHiRL0pogkEVVHmlVYXdHeHau7s27evRipnDoeD2bNnN5i0TiAQYObMmUrbFolEiIqKUotOQv2wbgA4HA58fHwwZcoUODo6qtRGTk4Oli5dijNnzuh81kBC00KV6UV7e3sWlDQtsrOza3n2OTs7Y9SoUUrrfvTRR2jbtq3SckePHiUeVyzDqgHQ19fHkCFDEBYWhsjISAQGBqrs45+VlYWQkBBER0fXCDcnEBqDKpuREAMAnDp1CpmZmTWOTZo0CRYWFkrr2tnZ4eOPP1ZaLiMjAydOnFBZI0E5rBoAMzMzbNq0CaNHj4aBgQEWLlyIr776SiXfawBIS0tDcHAwLly4oNLQnUD4L6os6LZ0A1BSUoJ9+/bVOGZhYYFJkybRbuOTTz6Bqamp0nL79u1DUVERY40EerBqAMzNzWvsYaqvr4958+bh66+/hqurq0ptpqSkIDg4GFeuXCFeAoRGk5uby7hOSzcAN2/erJXCfejQoXB3d6fdRqdOnTBgwACl5RISEnD58mWmEgk00bgXUFWOkCVLljC6YN7m8ePHCA4Oxo0bN0BRlJoVEloSKSkpjOu0ZAMglUqxa9euGr87Pp+P2bNnM2qnyiVU2S5nVYFhJAU3O2hl/zIOh4MZM2bAwMAA33zzDZKSkhi38c8//yAkJASbNm1C7969WVCpPlJTUzUa0GZjY9Oib1JMePr0KaPyXC63RZ/bxMTEWk/k3t7e6NOnD+O2Bg4ciE6dOikN+rp58ybu3LlDa18BAjO0toElh8PB1KlTweVyERERgUePHjFu4/bt21i2bBk2btyIHj16sKBSPezYsQMvXrzQWH9jxozBlClTNNZfU4apARAKhTAzM2NJje4TGRlZIyanyvWTx+MxbsvQ0BAzZ87EvHnzGiwnlUqxc+dO9OrVC/r6+oz7IdSPVncw5nA4mDRpEgwMDLB27VokJCQwbuOPP/5AaGgo1q9fDx8fHxZUNp7jx48jIyNDY/3VFYZPqE1+fj7j3P7vvvtui70JZWVl4dSpUzWOOTk54f3331e5zQ8//BDr169X+vuIiYnBkydP4OXlpXJfhNroRCRwQEAAVq5cqfIN/OLFiwgLC1NpFKEJyDqFbvL3338zSjrG4XBo+bk3V44fP17LL3/ChAmwtLRUuU1bW1uMGzdOabni4mISGMYCOmEAgDdPAqtWrUL37t1Vqn/u3DmsXr0aycnJalZGaK4wyVILvFlb8fPzY0mNblNUVIT9+/fXOGZubq6WqcZp06bRmlb7+eefa8UeEBqHzhgAABg1ahTCw8PRs2dPleofP34c69atw/Pnz9WsjNDckMvluHr1KqM6gwYNUil7aHPg2rVrePjwYY1jgwcPhqenZ6Pb9vLyorX396tXr2ptPENoHFpdA6iLd999FwYGBggNDcXt27cZ1//pp59gaGiIpUuXkp3FCPWSkpLC2PusMXPdTRmJRILdu3fXmsp0cHDAr7/+qpY+HBwcaJX78ccfMX36dFoRxwTl6JwBAIAhQ4ZAT08PISEhiIuLY1SXoihERkaCz+djyZIltC8sQsvi0KFDjPJKmZubo3///iwq0l0ePnyIa9eu1Tp+8uRJREdHq6UPun7+iYmJuHDhQp0bzhCYo5MGAHgz3F69ejWWLl2Ke/fuMaqrUCiwc+dOGBoa4ssvv4SdnR1LKukxatQoFBQUaKy/t6OvCbUpKChgPJXw7rvvav060gYURWHPnj11ZuLV1s5ou3btwpgxYyAQCLTSf3NCZw0AAPj7+0Mmk2H58uW1Qs+VIZfLsXXrVvD5fCxcuFClrf/UxTfffKPRtBV8Pl9jfTVFfvvtN0brRNbW1li0aBGLinSX9PR0nDlzRtsyahAbG4vY2Fha6waEhtFpAwAAI0aMgEwmQ2hoKOM4AYlEgo0bN4LP52PevHlamzdsqQuHusjr16/xww8/MKoTEBAAX19flhTpNseOHUNeXl6NY15eXjAyMmKlv3///Vepp49MJsOOHTvQr18/pbuLERqmSZy90aNHQyaTYeXKlYx9/SsrKxEREVGdr6QlR3ES3uSY/+uvv2iXd3JywsKFC1Xe0KgpU1hYiIMHD9Y4ZmJigmXLlrH2MBUXF4eVK1cqjZ25ePEiEhMTyXRnI2kSBgB4Eycgk8mwYsUKxr7+ZWVlWLNmDfh8PqZPn67SPrCEps/Tp0/x3Xff0Q7M09PTw+zZs/HOO++wrEw3uXz5MhITE2sc+5//+R+MHz+eNYPYtWtXREVF4eXLlw2WKysrw+7du7F9+/YWaZzVhU7FASgjICAAwcHBKu0sVlxcjLCwMBw+fBjl5eUsqCPoMgUFBdi0aROjnExeXl6YMWMGi6p0l4qKCuzatavGMQ6Hg5kzZ7J6w7W2tqbt4XPy5Emkp6ezpqWpkpOTg6SkJCQlJSndS71JGQAAmDp1KhYtWgQrKyvGdQsLCxEaGoqff/6ZpJdtQVRUVODAgQO1pjMawszMDF9++SVsbW1ZVKa7xMXF4ebNmzWOCYVC+Pv7s9731KlTaU0x5ebm4tChQ6zraUooFApERUVh7dq1WLt2LZ49e9Zg+SZnAPT09LBgwQLMmjULxsbGjOvn5eVh+fLlOHXqFKM8MISmiVwux7lz57B27do6XRnrQiAQYMqUKQgICGBZnW4il8uxY8eOWnES48aNg7m5Oev9e3h4YNiwYbTKHjx4EK9fv2ZZUdPh6dOn2Lx5Mw4fPowjR44one1gZAB0ZQcuHo+H4OBgjB07VqXMjK9evUJISAjOnj1LNplvxkgkEpw/fx4rVqxAfn4+rToGBgYYO3YsVq5cyZqni66TmJiImJiYGsdMTEw0Gnw1Z84cGBoaKi339OlTtUUjN3Xkcjl27txZfa3b29srXSRnZACYbsbOpsEwNTXFqlWrMHDgQJXqZ2RkIDg4mGwyzwBdeQCgQ1lZGU6ePImvvvqKttOAnp4eRowYgTVr1qg0xdgcoCgKu3btQmlpaY3jvXr1QseOHTWmo3fv3rQTQ+7evRtlZWUsK9J94uPjceTIkeq/+/fvrzRYjpEBYDplwvbTtZOTE1avXq3y1pKpqakIDg7G+fPniRGgQVMZLWVlZeHQoUMICgpitOVj//79sW7dOrRr145FdbrN8+fPceLEiRrHNLH4+1+4XC7mzp0LPT3lt6i4uDj8+eefGlCluxQUFGDDhg01RrrDhw9XWo+RAfjvU4Ey6M65NgY/Pz8EBQWhdevWKtWv2mQ+JiaGGAElaOL7bAxSqRR//fUXtmzZgpCQEEabvfj6+mLdunXo0KEDiwrrh45rqib2lYiMjKwV+OXs7KyRxd//8t5778HZ2VlpOYVCgR07drC6pqfLe3rIZDL89NNPOH36dPUxgUBAK3cVIwOQnZ3NSFhZWZlGnhonT56MCRMmqPyE8uTJE2IEaFBYWMiovKamjORyOZ4+fYqjR48iJCQE3377LW2tPB4PgwYNQnh4uFZz/dO57ti+NtPS0ur0qhk3bpxWAijNzMzw8ccf0yp7+fJlpXsLNwZdvS8oFApcvXoVERERNTR6enrSGskyMgBpaWmMxInFYtqLb42Bx+NhyZIljYoKTEpKQlBQEH799VfiHVQPTLe1FIlELCl5g0QiQUJCAo4dO4aIiAgEBgbixo0btOtbWFggICAAmzZtou11whZ03JIrKipYM6oURWHv3r21Rk18Ph8TJkxgpU86BAQE0Er6JhaLsXXrVtYeOJX502uDiooKxMTEIDQ0tNbD+bBhw+g9EFM0kcvlVM+ePSkAjF4XL16k20WjOXz4MMXn8xlrfPvl5uZGHT16lCovL9eY7qZASUkJZWtry+hc+vj4UHK5XK06pFIplZGRQcXGxlK7d++mPvroI8rMzIyRLi6XS3Xt2pVatmwZlZOTo1Z9qiAWiykDAwNa2l+/fs2KhidPnlD29va1+uvYsaPav0MmyGQyqkePHrTOjbGxMXXr1i1WdKxbt46WhpCQEFb6/y95eXnUvn37KHd391oaOBwOdf36dVrt0DYAycnJlEAgYHxDnT9/PqVQKFT+oEyoqKig+vTp0ygDAIBydHSkIiMjqYKCAo3obgpcvnyZ8Xk0MzOjbt++3ah+ZTIZlZ+fTz169Ii6ePEiFRkZSQUGBlKDBg1Sydg7OztTkydPpqKjoympVKqms9M4kpOTaeu/cuWK2vsXi8XU3Llz6+xv1qxZau+PKSEhIbTPz5gxY6jS0lK1axg/fjyt/idOnKj2vt8mMzOTunDhArVixQrKysqqTg3W1tZUcXExrfZo5QIqLi7G999/r9IwKDo6Gp9++im6du3KuC5T+Hw+Jk2a1GiPgCoX0dzcXHz88cdwdXVVk8KmSV5eHnbu3Mm4XlFREcLDwzFv3jy4ubnB1NQUfD4fXC4XCoUCMpkMMpkMcrm8+v9lZWUoLi5GSUkJSkpKIBKJkJ2djcePH+PRo0dITk5mPB/L4XAgFArh5eWFESNGYNy4cTq1oxSTaatjx46hb9++MDAwUFv/ly9fxuHDh+t8Txcy2Xp5edEue/78ecTExNBeO6DDy5cvcevWLVpl7927h3/++Qfe3t5q8ZoqLy9HXl4e8vLykJmZiZs3b+LChQu1cjS9TZ8+fWh/bw0aAKlUihcvXuD8+fM4cOAAM+X/x8uXLxEeHo5FixbB29tbZW8dOlAUpbb0sK9fv0ZYWBieP3+OgIAA9OjRg1XtukhFRQWePn2K06dP49y5cyq1ERMTg+TkZPTt2xd2dnYwMTEBj8eDTCaDRCJBZWUlpFIpKisrUVlZiYKCAuTm5iInJwe5ubkQiUQqe2DweDy4urqiU6dOGDBgAIYPHw6hUKhSW2yRkZHBKJ3B8ePHMWXKFPTt21ct/cfHx2P16tUoLi6u8/2kpCSUl5drNSiOyY1UIpFgzZo1cHV1hY+PT6P7FovFiIqKor3+lZycjLCwMIwfPx7W1tbV1zuXywWHw6n3s1T9HqRSKSQSCSQSCYqKipCVlYUXL17g+fPnSEhIoOXZRsf9swoORVGUVCpFSUkJKioqUF5eDpFIhMLCQqSlpeHPP//EiRMnGr0I0q1bN3zwwQfw8vKCtbU1zM3N0apVKxgaGsLQ0JCRl0FpaSkkEkn1U2SV5rS0NGzdupXRExUdOnTogAkTJsDHxweOjo5o3bo1jI2NYWBgABMTkxK1cQ0AAARoSURBVCafjVAikaC0tBRisRjl5eUoLCxEQUEBnj9/jqtXr+LcuXM66wXxXwwMDNCuXTsIhUK4ubmhX79+8Pf3h6WlpbalVSOVSpGbm4sXL17g1KlT2LZtGyMj5+/vj4ULF8Ld3R329vaMU6JQFIXi4mIkJCRg8+bNOHv2bL1lzc3NsWnTJgwaNAiOjo4azb9fUlKC1NRUrFmzplZsgjJGjx6NuXPnwtfXl/FoT6FQQCQS4eXLl7hz5w7Cw8MZuRQDbwJVnZ2dYWVlBSMjIxgYGEBPT6/euIbKykqIxeLq32B5eTmys7MZe97xeDw8evQIbm5utMpzKIqi7t69i5iYmOohd1ZWFjIyMvD06VO1e8TY2dmhffv2cHBwgLW1NUxNTWFqaorFixfTGtYqFAps3rwZYrEYMpkMlZWVEIlEePXqFe7du8fqNnUuLi7w8fFB27ZtYWFhAYFAgPnz5zf5reliY2Nx6dIlFBUVobCwEJmZmUhPT0dKSorOR/8aGhrCysoK1tbWsLKygrOzM7p37w5fX1907NhRpVQh6ubhw4fIysqCRCKpflhJSUlBbGwsbt++rdIIx9XVFf3794eXlxdsbGxgbGwMPp8PCwsL9OzZs956v//+O3Jzc5GZmYlz584hNjZWaV+2trYYM2YMunfvDgsLC/D5fLRv317lAMz6SE1NRXJyMiQSCSoqKpCWloa///4bZ8+eVek6dHd3x8SJE+Hq6gpTU1MMGDCg3lTwxcXF+OuvvyAWi1FUVIT09HTcu3cP165dQ0lJSWM/msbw8vJCQkICrQA6AABFUdTGjRsbvXDa2BfdhRupVKp1rW+/cnNzGS/k6Brh4eFaP490Xlwul7Kzs6M6duxIDRgwgBo7diy1YMECasuWLdQvv/xCPXz4UGcWdt9m8eLFlLu7O9WuXTuqVatWaj8vfD6fcnBwoNzc3KiAgIAGtXh7e6vsKcfj8Sg7OzvKzc2NWr9+vdrP0549eygPDw/K0dGRMjc3V9v5EQgElLOzM5WcnFxv3w8fPqTc3d0pOzs7isvlav1aV/UVGBjI6JxzgTf+0Nrc9KJqYZAOHA4HnTt31ol0zgYGBs1i/10HBwetb3qip6cHHo8HHo8HPp8PPp9f428ejwcTExMIhUK4uLjA2dkZLi4uOjW1Ux/6+vqgKAqGhoawt7eHvb09a30pG7EbGxvDycmp0f2w4W9f5RwgEAggEAhgY2OjtrY5HE6DT8U8Hg8AqmckmipM5v+B/1sE7tmzJ0JCQlgRRIeq4Ssd9PX1sWLFCp0YlhkaGuqEl0RjGThwIP0hI0vo6+vDyMgIxsbGNV5Vx4yMjGhlh9RFxo0bB09PT430pcwgBgcHqyV9MhufZ+DAgaytp3E4nAYNr5OTE5YuXarzU57KaGj6ry44FKXDSS4IBAKBwBpNbkMYAoFAIKgHYgAIBAKhhUIMAIFAILRQiAEgEAiEFgoxAAQCgdBCIQaAQCAQWijEABAIBEIL5X8B+BmPN+IjWo4AAAAASUVORK5CYII=;" parent="1" vertex="1">
          <mxGeometry x="1043.68" y="651" width="65.5" height="15" as="geometry" />
        </mxCell>
      </root>
    </mxGraphModel>
  </diagram>
</mxfile>
